<svg width="20" height="20" viewBox="0 0 20 20" fill="none" xmlns="http://www.w3.org/2000/svg">
<path d="M18.976 9.619L18.301 3.662C18.13 2.146 16.847 1 15.321 1H4.679C3.153 1 1.87 2.146 1.698 3.662L1.023 9.619M16 13H4M16 13C17.657 13 19 14.343 19 16C19 17.657 17.657 19 16 19H4C2.343 19 1 17.657 1 16C1 14.343 2.343 13 4 13M16 13C17.657 13 19 11.657 19 10C19 8.343 17.657 7 16 7H4C2.343 7 1 8.343 1 10C1 11.657 2.343 13 4 13M9 10H16M4 10H5M4 16H5M9.07 16H16.07" stroke="#2F57F4" stroke-width="1.5" stroke-linecap="round" stroke-linejoin="round"/>
</svg>
