<svg width="80" height="80" viewBox="0 0 80 80" fill="none" xmlns="http://www.w3.org/2000/svg">
<path d="M66.6667 56.6667H13.3333C11.4933 56.6667 10 55.1733 10 53.3333V50C10 48.16 11.4933 46.6667 13.3333 46.6667H66.6667C68.5067 46.6667 70 48.16 70 50V53.3333C70 55.1733 68.5067 56.6667 66.6667 56.6667Z" stroke="#01196F" stroke-width="2" stroke-linecap="round" stroke-linejoin="round"/>
<path d="M16.6668 13.3333C14.8268 13.3333 13.3335 14.8267 13.3335 16.6667V46.6667H66.6668V16.6667C66.6668 14.8267 65.1735 13.3333 63.3335 13.3333" stroke="#01196F" stroke-width="2" stroke-linecap="round" stroke-linejoin="round"/>
<path d="M53.3333 70L50 56.6667" stroke="#01196F" stroke-width="2" stroke-linecap="round" stroke-linejoin="round"/>
<path d="M26.6665 70L29.9998 56.6667" stroke="#01196F" stroke-width="2" stroke-linecap="round" stroke-linejoin="round"/>
<path d="M53.3335 18.3333H26.6668C24.8268 18.3333 23.3335 16.84 23.3335 15V11.6667C23.3335 9.82668 24.8268 8.33334 26.6668 8.33334H53.3335C55.1735 8.33334 56.6668 9.82668 56.6668 11.6667V15C56.6668 16.84 55.1735 18.3333 53.3335 18.3333Z" stroke="#01196F" stroke-width="2" stroke-linecap="round" stroke-linejoin="round"/>
<path d="M63.3332 13.3333H56.6665" stroke="#01196F" stroke-width="2" stroke-linecap="round" stroke-linejoin="round"/>
<path d="M23.3332 13.3333H16.6665" stroke="#01196F" stroke-width="2" stroke-linecap="round" stroke-linejoin="round"/>
</svg>
