<svg width="20" height="20" viewBox="0 0 20 20" fill="none" xmlns="http://www.w3.org/2000/svg">
<path d="M12 15L12.5 19M8 15L7.5 19M6.143 19H13.857M10 5V4M10 5H9.404C8.629 5 8 5.629 8 6.404C8 7.048 8.438 7.61 9.062 7.768L10.937 8.238C11.562 8.395 12 8.956 12 9.6C12 10.375 11.372 11.004 10.596 11.004L10 11.003M10 5H10.5C11.033 5 11.474 5.292 11.734 5.714M10 11.003V12M10 11.003L9.5 11.004C8.965 11.004 8.523 10.71 8.264 10.286M16.429 15H3.571C2.151 15 1 13.849 1 12.429V3.571C1 2.151 2.151 1 3.571 1H16.428C17.849 1 19 2.151 19 3.571V12.428C19 13.849 17.849 15 16.429 15Z" stroke="#01196F" stroke-width="1.5" stroke-miterlimit="10" stroke-linecap="round" stroke-linejoin="round"/>
</svg>
