<svg width="22" height="22" viewBox="0 0 22 22" fill="none" xmlns="http://www.w3.org/2000/svg">
<path d="M7.64875 9.57424V14.4832M10.9198 14.4832V11.6192C10.9198 10.4892 11.8348 9.57424 12.9648 9.57424C14.0948 9.57424 15.0098 10.4892 15.0098 11.6192V14.4832M7.64675 6.60824C7.53375 6.60824 7.44175 6.70024 7.44275 6.81324C7.44275 6.92624 7.53475 7.01824 7.64775 7.01824C7.76075 7.01824 7.85275 6.92624 7.85275 6.81324C7.85175 6.69924 7.75975 6.60824 7.64675 6.60824ZM18.0707 3.92924C21.9757 7.83424 21.9757 14.1662 18.0707 18.0712C14.1657 21.9762 7.83375 21.9762 3.92875 18.0712C0.0237501 14.1662 0.0237501 7.83424 3.92875 3.92924C7.83375 0.0242383 14.1657 0.0242383 18.0707 3.92924Z" stroke="white" stroke-width="1.5" stroke-linecap="round" stroke-linejoin="round"/>
</svg>
