<svg width="24" height="24" viewBox="0 0 24 24" fill="none" xmlns="http://www.w3.org/2000/svg">
<path fill-rule="evenodd" clip-rule="evenodd" d="M24 12C24 18.6274 18.6274 24 12 24C5.37258 24 0 18.6274 0 12C0 5.37258 5.37258 0 12 0C18.6274 0 24 5.37258 24 12ZM18.0258 10.0548C18.4242 9.67241 18.4372 9.03938 18.0548 8.64093C17.6724 8.24247 17.0394 8.22948 16.6409 8.61191L11.0822 13.9471L8.02607 11.0116C7.62776 10.629 6.99472 10.6418 6.61214 11.0401C6.22956 11.4384 6.24231 12.0714 6.64062 12.454L10.3892 16.0546C10.7761 16.4262 11.3873 16.4263 11.7744 16.0548L18.0258 10.0548Z" fill="#2F57F4"/>
</svg>
