<svg width="14" height="14" viewBox="0 0 14 14" fill="none" xmlns="http://www.w3.org/2000/svg">
<path d="M5.45733 5.45733C5.5338 5.12733 5.72315 4.83441 5.99265 4.62918C6.26215 4.42395 6.59488 4.31931 6.93333 4.33333C7.30874 4.31254 7.67713 4.44106 7.95814 4.69084C8.23915 4.94063 8.40997 5.29141 8.43333 5.66667C8.43333 6.66933 7 7 7 7.66667M13 7C13 10.3137 10.3137 13 7 13C3.68629 13 1 10.3137 1 7C1 3.68629 3.68629 1 7 1C10.3137 1 13 3.68629 13 7ZM7.08333 9.5C7.08333 9.51648 7.07845 9.53259 7.06929 9.5463C7.06013 9.56 7.04712 9.57068 7.03189 9.57699C7.01666 9.5833 6.99991 9.58495 6.98374 9.58173C6.96758 9.57852 6.95273 9.57058 6.94107 9.55893C6.92942 9.54727 6.92148 9.53242 6.91827 9.51626C6.91505 9.50009 6.9167 9.48334 6.92301 9.46811C6.92932 9.45288 6.94 9.43987 6.9537 9.43071C6.96741 9.42155 6.98352 9.41667 7 9.41667C7.046 9.41667 7.08333 9.454 7.08333 9.5Z" stroke="#2F57F4" stroke-width="1.5" stroke-linecap="round" stroke-linejoin="round"/>
</svg>
