<svg width="22" height="20" viewBox="0 0 22 20" fill="none" xmlns="http://www.w3.org/2000/svg">
<path d="M1 5.25C0.585786 5.25 0.25 5.58579 0.25 6C0.25 6.41421 0.585786 6.75 1 6.75V5.25ZM21 6.75C21.4142 6.75 21.75 6.41421 21.75 6C21.75 5.58579 21.4142 5.25 21 5.25V6.75ZM12.512 9.16314C12.6021 8.75885 12.3474 8.35806 11.9431 8.26796C11.5388 8.17786 11.1381 8.43256 11.048 8.83686L12.512 9.16314ZM9.48796 15.8369C9.39786 16.2412 9.65256 16.6419 10.0569 16.732C10.4612 16.8221 10.8619 16.5674 10.952 16.1631L9.48796 15.8369ZM14.7803 10.2197C14.4874 9.92678 14.0126 9.92678 13.7197 10.2197C13.4268 10.5126 13.4268 10.9874 13.7197 11.2803L14.7803 10.2197ZM16 12.5L16.5303 13.0303C16.8232 12.7374 16.8232 12.2626 16.5303 11.9697L16 12.5ZM13.7197 13.7197C13.4268 14.0126 13.4268 14.4874 13.7197 14.7803C14.0126 15.0732 14.4874 15.0732 14.7803 14.7803L13.7197 13.7197ZM7.21967 14.7803C7.51256 15.0732 7.98744 15.0732 8.28033 14.7803C8.57322 14.4874 8.57322 14.0126 8.28033 13.7197L7.21967 14.7803ZM6 12.5L5.46967 11.9697C5.17678 12.2626 5.17678 12.7374 5.46967 13.0303L6 12.5ZM8.28033 11.2803C8.57322 10.9874 8.57322 10.5126 8.28033 10.2197C7.98744 9.92678 7.51256 9.92678 7.21967 10.2197L8.28033 11.2803ZM19 18.25H3V19.75H19V18.25ZM3 18.25C2.30921 18.25 1.75 17.6908 1.75 17H0.25C0.25 18.5192 1.48079 19.75 3 19.75V18.25ZM1.75 17V3H0.25V17H1.75ZM1.75 3C1.75 2.30921 2.30921 1.75 3 1.75V0.25C1.48079 0.25 0.25 1.48079 0.25 3H1.75ZM3 1.75H19V0.25H3V1.75ZM19 1.75C19.6908 1.75 20.25 2.30921 20.25 3H21.75C21.75 1.48079 20.5192 0.25 19 0.25V1.75ZM20.25 3V17H21.75V3H20.25ZM20.25 17C20.25 17.6908 19.6908 18.25 19 18.25V19.75C20.5192 19.75 21.75 18.5192 21.75 17H20.25ZM1 6.75H21V5.25H1V6.75ZM11.048 8.83686L9.48796 15.8369L10.952 16.1631L12.512 9.16314L11.048 8.83686ZM13.7197 11.2803L15.4697 13.0303L16.5303 11.9697L14.7803 10.2197L13.7197 11.2803ZM15.4697 11.9697L13.7197 13.7197L14.7803 14.7803L16.5303 13.0303L15.4697 11.9697ZM8.28033 13.7197L6.53033 11.9697L5.46967 13.0303L7.21967 14.7803L8.28033 13.7197ZM6.53033 13.0303L8.28033 11.2803L7.21967 10.2197L5.46967 11.9697L6.53033 13.0303ZM5.25 3.5C5.25 2.80964 4.69036 2.25 4 2.25V3.75C3.86193 3.75 3.75 3.63807 3.75 3.5H5.25ZM4 2.25C3.30964 2.25 2.75 2.80964 2.75 3.5H4.25C4.25 3.63807 4.13807 3.75 4 3.75V2.25ZM2.75 3.5C2.75 4.19036 3.30964 4.75 4 4.75V3.25C4.13807 3.25 4.25 3.36193 4.25 3.5H2.75ZM4 4.75C4.69036 4.75 5.25 4.19036 5.25 3.5H3.75C3.75 3.36193 3.86193 3.25 4 3.25V4.75ZM8.25 3.5C8.25 2.80964 7.69036 2.25 7 2.25V3.75C6.86193 3.75 6.75 3.63807 6.75 3.5H8.25ZM7 2.25C6.30964 2.25 5.75 2.80964 5.75 3.5H7.25C7.25 3.63807 7.13807 3.75 7 3.75V2.25ZM5.75 3.5C5.75 4.19036 6.30964 4.75 7 4.75V3.25C7.13807 3.25 7.25 3.36193 7.25 3.5H5.75ZM7 4.75C7.69036 4.75 8.25 4.19036 8.25 3.5H6.75C6.75 3.36193 6.86193 3.25 7 3.25V4.75ZM11.25 3.5C11.25 2.80964 10.6904 2.25 10 2.25V3.75C9.86193 3.75 9.75 3.63807 9.75 3.5H11.25ZM10 2.25C9.30964 2.25 8.75 2.80964 8.75 3.5H10.25C10.25 3.63807 10.1381 3.75 10 3.75V2.25ZM8.75 3.5C8.75 4.19036 9.30964 4.75 10 4.75V3.25C10.1381 3.25 10.25 3.36193 10.25 3.5H8.75ZM10 4.75C10.6904 4.75 11.25 4.19036 11.25 3.5H9.75C9.75 3.36193 9.86193 3.25 10 3.25V4.75Z" fill="#01196F"/>
</svg>
