<svg width="22" height="20" viewBox="0 0 22 20" fill="none" xmlns="http://www.w3.org/2000/svg">
<path d="M8.07009 15.07L9.83009 12.02M5.5 14.5L4 12M8.07009 4.93L9.83009 7.98M14.5001 5.5L12.5001 8M16.8501 10H13.3401M18 12L16.5 15M12.6554 8.3447C13.5696 9.25891 13.5696 10.7412 12.6554 11.6554C11.7412 12.5696 10.2589 12.5696 9.34472 11.6554C8.4305 10.7411 8.4305 9.25891 9.34472 8.3447C10.2589 7.43048 11.7412 7.43048 12.6554 8.3447ZM20.449 8.5101C21.2718 9.33293 21.2718 10.667 20.449 11.4898C19.6262 12.3127 18.2921 12.3127 17.4692 11.4898C16.6464 10.667 16.6464 9.33294 17.4692 8.5101C18.2921 7.68726 19.6261 7.68726 20.449 8.5101ZM4.53096 8.5101C5.35379 9.33293 5.35379 10.667 4.53096 11.4898C3.70812 12.3127 2.37405 12.3127 1.55121 11.4898C0.728373 10.667 0.728373 9.33294 1.55121 8.5101C2.37404 7.68726 3.70812 7.68726 4.53096 8.5101ZM16.469 1.61713C17.2918 2.43996 17.2918 3.77404 16.469 4.59688C15.6462 5.41971 14.3121 5.41971 13.4892 4.59688C12.6664 3.77404 12.6664 2.43997 13.4892 1.61713C14.3121 0.794291 15.6461 0.794291 16.469 1.61713ZM8.51096 15.4031C9.33379 16.2259 9.33379 17.56 8.51096 18.3828C7.68812 19.2057 6.35405 19.2057 5.53121 18.3828C4.70837 17.56 4.70837 16.2259 5.53121 15.4031C6.35404 14.5803 7.68812 14.5803 8.51096 15.4031ZM8.51096 1.61713C9.33379 2.43996 9.33379 3.77404 8.51096 4.59688C7.68812 5.41971 6.35405 5.41971 5.53121 4.59688C4.70837 3.77404 4.70837 2.43997 5.53121 1.61713C6.35404 0.794291 7.68812 0.794291 8.51096 1.61713ZM16.469 15.4031C17.2918 16.2259 17.2918 17.56 16.469 18.3828C15.6462 19.2057 14.3121 19.2057 13.4892 18.3828C12.6664 17.56 12.6664 16.2259 13.4892 15.4031C14.3121 14.5803 15.6461 14.5803 16.469 15.4031Z" stroke="#2F57F4" stroke-width="1.5" stroke-linecap="round" stroke-linejoin="round"/>
</svg>
