<svg width="14" height="20" viewBox="0 0 14 20" fill="none" xmlns="http://www.w3.org/2000/svg">
<path d="M4.5 1V2.8C4.48801 2.9456 4.53369 3.09008 4.62722 3.20232C4.72075 3.31455 4.85462 3.38554 5 3.4H9C9.14538 3.38554 9.27925 3.31455 9.37278 3.20232C9.46631 3.09008 9.512 2.9456 9.5 2.8V1M5 16H9M11 19H3C2.46957 19 1.96086 18.7893 1.58579 18.4142C1.21071 18.0391 1 17.5304 1 17V3C1 2.46957 1.21071 1.96086 1.58579 1.58579C1.96086 1.21071 2.46957 1 3 1H11C11.5304 1 12.0391 1.21071 12.4142 1.58579C12.7893 1.96086 13 2.46957 13 3V17C13 17.5304 12.7893 18.0391 12.4142 18.4142C12.0391 18.7893 11.5304 19 11 19Z" stroke="#01196F" stroke-width="1.5" stroke-linecap="round" stroke-linejoin="round"/>
</svg>
