<svg width="20" height="20" viewBox="0 0 20 20" fill="none" xmlns="http://www.w3.org/2000/svg">
<path d="M3.75 12C3.75 12.4142 4.08579 12.75 4.5 12.75C4.91421 12.75 5.25 12.4142 5.25 12H3.75ZM4.5 8L5.136 7.6025C4.95867 7.31878 4.61485 7.18682 4.29324 7.27906C3.97162 7.3713 3.75 7.66542 3.75 8H4.5ZM7 12L6.364 12.3975C6.54133 12.6812 6.88515 12.8132 7.20676 12.7209C7.52838 12.6287 7.75 12.3346 7.75 12H7ZM7.75 8C7.75 7.58579 7.41421 7.25 7 7.25C6.58579 7.25 6.25 7.58579 6.25 8H7.75ZM8.75 12C8.75 12.4142 9.08579 12.75 9.5 12.75C9.91421 12.75 10.25 12.4142 10.25 12H8.75ZM11 10.75C11.4142 10.75 11.75 10.4142 11.75 10C11.75 9.58579 11.4142 9.25 11 9.25V10.75ZM9.5 8V7.25C9.08579 7.25 8.75 7.58579 8.75 8H9.5ZM11.5 8.75C11.9142 8.75 12.25 8.41421 12.25 8C12.25 7.58579 11.9142 7.25 11.5 7.25V8.75ZM13.75 12C13.75 12.4142 14.0858 12.75 14.5 12.75C14.9142 12.75 15.25 12.4142 15.25 12H13.75ZM13.5 7.25C13.0858 7.25 12.75 7.58579 12.75 8C12.75 8.41421 13.0858 8.75 13.5 8.75V7.25ZM15.5 8.75C15.9142 8.75 16.25 8.41421 16.25 8C16.25 7.58579 15.9142 7.25 15.5 7.25V8.75ZM5.25 12V8H3.75V12H5.25ZM3.864 8.3975L6.364 12.3975L7.636 11.6025L5.136 7.6025L3.864 8.3975ZM7.75 12V8H6.25V12H7.75ZM10.25 12V10H8.75V12H10.25ZM9.5 10.75H11V9.25H9.5V10.75ZM10.25 10V8H8.75V10H10.25ZM9.5 8.75H11.5V7.25H9.5V8.75ZM15.25 12V8H13.75V12H15.25ZM14.5 7.25H13.5V8.75H14.5V7.25ZM14.5 8.75H15.5V7.25H14.5V8.75ZM18.25 10C18.25 14.5563 14.5563 18.25 10 18.25V19.75C15.3848 19.75 19.75 15.3848 19.75 10H18.25ZM10 18.25C5.44365 18.25 1.75 14.5563 1.75 10H0.25C0.25 15.3848 4.61522 19.75 10 19.75V18.25ZM1.75 10C1.75 5.44365 5.44365 1.75 10 1.75V0.25C4.61522 0.25 0.25 4.61522 0.25 10H1.75ZM10 1.75C14.5563 1.75 18.25 5.44365 18.25 10H19.75C19.75 4.61522 15.3848 0.25 10 0.25V1.75Z" fill="#01196F"/>
</svg>
