<svg width="24" height="24" viewBox="0 0 24 24" fill="none" xmlns="http://www.w3.org/2000/svg">
<path d="M16.8955 20.3111C17.0437 20.6074 17.4041 20.7276 17.7005 20.5794C17.9969 20.4312 18.117 20.0708 17.9688 19.7744L16.8955 20.3111ZM11.7297 8.63782H12.3297C12.3297 8.30645 12.0611 8.03782 11.7297 8.03782C11.3983 8.03781 11.1297 8.30643 11.1297 8.6378L11.7297 8.63782ZM14.9611 11.8964L14.9561 12.4964H14.9611V11.8964ZM15.0109 11.9118L14.6709 12.4062L14.6781 12.411L15.0109 11.9118ZM18.5926 14.2995L18.2597 14.7988L18.2622 14.8004L18.5926 14.2995ZM18.7066 14.2878L18.2823 13.8635L18.281 13.8649L18.7066 14.2878ZM20.2363 12.7581L19.8123 12.3335L19.812 12.3338L20.2363 12.7581ZM20.2526 12.6522L19.7192 12.927L19.7206 12.9296L20.2526 12.6522ZM15.8029 5.15932H15.2029V5.34941L15.3123 5.50482L15.8029 5.15932ZM15.8029 3.84052H15.2029H15.8029ZM15.7124 3.75V3.14999L15.7087 3.15001L15.7124 3.75ZM4.96811 20.3014C5.11096 20.6004 5.46915 20.727 5.76815 20.5841C6.06715 20.4413 6.19373 20.0831 6.05088 19.7841L4.96811 20.3014ZM15.9528 5.11612C15.6433 5.2345 15.4884 5.58137 15.6068 5.89087C15.7251 6.20038 16.072 6.35531 16.3815 6.23693L15.9528 5.11612ZM20.8726 3.87672L21.087 4.43713L21.0984 4.43275L21.1097 4.4279L20.8726 3.87672ZM20.9831 4.01159L21.4746 4.35569L21.4749 4.35527L20.9831 4.01159ZM10.2063 3.94008L10.1857 3.34044L10.1856 3.34044L10.2063 3.94008ZM3.01034 11.7923L3.60955 11.7615L3.60951 11.7607L3.01034 11.7923ZM3.38236 13.7601L3.95326 13.5754L3.95165 13.5706L3.38236 13.7601ZM14.447 6.84045C14.447 6.50908 14.1784 6.24045 13.847 6.24045C13.5156 6.24045 13.247 6.50908 13.247 6.84045H14.447ZM13.247 7.21545C13.247 7.54682 13.5156 7.81545 13.847 7.81545C14.1784 7.81545 14.447 7.54682 14.447 7.21545H13.247ZM17.9688 19.7744C17.0836 18.004 15.5259 16.8925 14.3541 15.9159C13.1334 14.8987 12.3297 14.0401 12.3297 12.711H11.1297C11.1297 14.6405 12.3626 15.8184 13.5858 16.8378C14.8579 17.8978 16.1514 18.8229 16.8955 20.3111L17.9688 19.7744ZM12.3297 12.711V8.63782H11.1297V12.711H12.3297ZM11.1297 8.6378C11.1297 9.6556 11.5318 10.6322 12.2484 11.3549L13.1005 10.5099C12.6067 10.012 12.3297 9.33911 12.3297 8.63784L11.1297 8.6378ZM12.2484 11.3549C12.9651 12.0776 13.9383 12.4879 14.9561 12.4963L14.9661 11.2964C14.2648 11.2905 13.5943 11.0079 13.1005 10.5099L12.2484 11.3549ZM14.9611 12.4964C14.8576 12.4964 14.7563 12.4649 14.671 12.4062L15.3508 11.4173C15.2364 11.3387 15.1008 11.2964 14.9611 11.2964V12.4964ZM14.6781 12.411L18.2597 14.7988L18.9254 13.8003L15.3437 11.4125L14.6781 12.411ZM18.2622 14.8004C18.3953 14.8882 18.5547 14.9272 18.7133 14.9109L18.5901 13.7172C18.7071 13.7051 18.8247 13.7339 18.9229 13.7987L18.2622 14.8004ZM18.7133 14.9109C18.8718 14.8945 19.0199 14.8238 19.1323 14.7106L18.281 13.8649C18.3639 13.7814 18.4731 13.7293 18.5901 13.7172L18.7133 14.9109ZM19.1309 14.712L20.6606 13.1823L19.812 12.3338L18.2823 13.8635L19.1309 14.712ZM20.6603 13.1826C20.7643 13.0787 20.8325 12.9443 20.8548 12.799L19.6688 12.6166C19.6853 12.5093 19.7356 12.4102 19.8123 12.3335L20.6603 13.1826ZM20.8548 12.799C20.8772 12.6537 20.8526 12.5051 20.7846 12.3747L19.7206 12.9296C19.6704 12.8334 19.6523 12.7238 19.6688 12.6166L20.8548 12.799ZM20.786 12.3774L18.5312 8.00096L17.4645 8.55055L19.7192 12.927L20.786 12.3774ZM16.4029 5.15932V3.84052H15.2029V5.15932H16.4029ZM16.4029 3.84052C16.4029 3.74981 16.385 3.66002 16.3503 3.57627L15.2417 4.03549C15.2161 3.9737 15.2029 3.90745 15.2029 3.84052L16.4029 3.84052ZM16.3503 3.57627C16.3156 3.4925 16.2648 3.41637 16.2006 3.35225L15.3521 4.20078C15.3048 4.15346 15.2673 4.09729 15.2417 4.03549L16.3503 3.57627ZM16.2006 3.35225C16.1365 3.28812 16.0604 3.23726 15.9766 3.20256L15.5174 4.31122C15.4556 4.28562 15.3994 4.24809 15.3521 4.20078L16.2006 3.35225ZM15.9766 3.20256C15.8928 3.16786 15.803 3.15 15.7124 3.15L15.7124 4.35C15.6455 4.35 15.5792 4.33682 15.5174 4.31122L15.9766 3.20256ZM15.7087 3.15001C13.6902 3.16241 11.7076 3.68439 9.94477 4.66752L10.5293 5.71556C12.1156 4.83086 13.8997 4.36114 15.716 4.34999L15.7087 3.15001ZM9.94477 4.66752C8.18191 5.65066 6.6959 7.0631 5.62461 8.77382L6.64165 9.41071C7.60568 7.87128 8.9429 6.60026 10.5293 5.71556L9.94477 4.66752ZM5.62461 8.77382C4.55332 10.4845 3.93144 12.4381 3.81667 14.4533L5.01473 14.5216C5.11801 12.7081 5.67762 10.9502 6.64165 9.41071L5.62461 8.77382ZM3.81667 14.4533C3.70191 16.4685 4.09797 18.4801 4.96811 20.3014L6.05088 19.7841C5.26786 18.1451 4.91146 16.335 5.01473 14.5216L3.81667 14.4533ZM15.3123 5.50482L17.5073 8.62126L18.4884 7.93026L16.2934 4.81382L15.3123 5.50482ZM16.3815 6.23693L21.087 4.43713L20.6583 3.31632L15.9528 5.11612L16.3815 6.23693ZM21.1097 4.4279C20.6472 4.62684 20.1927 4.09521 20.4912 3.66791L21.4749 4.35527C21.8785 3.77771 21.2665 3.05419 20.6356 3.32554L21.1097 4.4279ZM20.4915 3.66749L17.5063 7.93166L18.4894 8.61986L21.4746 4.35569L20.4915 3.66749ZM15.7143 3.15035L10.1857 3.34044L10.2269 4.53973L15.7556 4.34965L15.7143 3.15035ZM10.1856 3.34044C9.11496 3.37741 8.06243 3.62733 7.08947 4.07561L7.59163 5.1655C8.4198 4.78393 9.3157 4.57119 10.227 4.53972L10.1856 3.34044ZM7.08947 4.07561C6.11651 4.5239 5.24262 5.16155 4.51885 5.95133L5.40354 6.76208C6.01961 6.08983 6.76345 5.54707 7.59163 5.1655L7.08947 4.07561ZM4.51885 5.95133C3.79507 6.74111 3.23591 7.66719 2.87403 8.67548L4.00349 9.08085C4.31152 8.22261 4.78747 7.43434 5.40354 6.76208L4.51885 5.95133ZM2.87403 8.67548C2.51215 9.68377 2.3548 10.7541 2.41117 11.8238L3.60951 11.7607C3.56153 10.8501 3.69546 9.9391 4.00349 9.08085L2.87403 8.67548ZM2.41113 11.823C2.44833 12.5475 2.58438 13.2625 2.81307 13.9496L3.95165 13.5706C3.75672 12.985 3.64114 12.3767 3.60955 11.7615L2.41113 11.823ZM2.81148 13.9447L4.30412 18.5596L5.44588 18.1904L3.95324 13.5754L2.81148 13.9447ZM13.247 6.84045V7.21545H14.447V6.84045H13.247Z" fill="#2F57F4"/>
</svg>
