<svg width="24" height="16" viewBox="0 0 24 16" fill="none" xmlns="http://www.w3.org/2000/svg">
<path d="M23 15V13.904C23 12.523 21.881 11.404 20.5 11.404H19.699M1 15V13.904C1 12.523 2.119 11.404 3.5 11.404H4.301M17.339 15V13.399C17.339 11.466 15.772 9.899 13.839 9.899H10.16C8.227 9.899 6.66 11.466 6.66 13.399V15M20.7925 5.52352C21.5825 6.31355 21.5825 7.59444 20.7925 8.38447C20.0025 9.1745 18.7216 9.1745 17.9315 8.38447C17.1415 7.59444 17.1415 6.31355 17.9315 5.52352C18.7216 4.73349 20.0025 4.73349 20.7925 5.52352ZM14.2026 1.91236C15.4191 3.12884 15.4191 5.10115 14.2026 6.31764C12.9861 7.53412 11.0138 7.53412 9.79732 6.31764C8.58084 5.10116 8.58084 3.12885 9.79732 1.91236C11.0138 0.69588 12.9861 0.69588 14.2026 1.91236ZM6.06848 5.52352C6.85851 6.31355 6.85851 7.59444 6.06848 8.38447C5.27845 9.1745 3.99756 9.1745 3.20753 8.38447C2.4175 7.59444 2.4175 6.31355 3.20753 5.52352C3.99756 4.73349 5.27845 4.73349 6.06848 5.52352Z" stroke="#01196F" stroke-width="1.5" stroke-linecap="round" stroke-linejoin="round"/>
</svg>
