<svg width="22" height="22" viewBox="0 0 22 22" fill="none" xmlns="http://www.w3.org/2000/svg">
<path d="M11 21C16.5228 21 21 16.5228 21 11C21 5.47715 16.5228 1 11 1C5.47715 1 1 5.47715 1 11C1 16.5228 5.47715 21 11 21Z" stroke="white" stroke-width="1.5" stroke-linecap="round" stroke-linejoin="round"/>
<path d="M5.5 14.533C5.519 14.53 7.3 13.933 7.3 13.933C5.296 11.907 5.144 8.906 6.7 6.733C7.438 8.106 8.816 9.372 10.3 9.733C10.357 8 11.533 6.733 13.3 6.733C14.503 6.733 15.211 7.192 15.7 7.933H17.5L16.3 9.733" stroke="white" stroke-width="1.5" stroke-linecap="round" stroke-linejoin="round"/>
</svg>
