<svg width="20" height="20" viewBox="0 0 20 20" fill="none" xmlns="http://www.w3.org/2000/svg">
<path d="M6.27002 10.79L1.30002 5.82002C1.10791 5.62765 1 5.36689 1 5.09502C1 4.82315 1.10791 4.56239 1.30002 4.37002L4.37002 1.30002C4.56239 1.10791 4.82315 1 5.09502 1C5.36689 1 5.62765 1.10791 5.82002 1.30002L10.55 6.03002M13.97 9.45002L18.7 14.18C18.8921 14.3724 19 14.6331 19 14.905C19 15.1769 18.8921 15.4376 18.7 15.63L15.63 18.7C15.4376 18.8921 15.1769 19 14.905 19C14.6331 19 14.3724 18.8921 14.18 18.7L9.21002 13.73M4.78002 13.04C6.16702 10.7446 7.84782 8.64002 9.77979 6.77979C13.8105 2.74904 17.8483 0.251647 18.7983 1.2017C19.7484 2.15175 17.251 6.1895 13.22 10.22C11.36 12.1522 9.2555 13.833 6.96002 15.22M4.96613 18.2882L2.24413 18.9687C2.07659 19.0106 1.90105 19.0084 1.73462 18.9623C1.56818 18.9162 1.41652 18.8278 1.2944 18.7056C1.17228 18.5835 1.08387 18.4319 1.03777 18.2654C0.99167 18.099 0.989456 17.9235 1.03134 17.7559L1.71351 15.0272C1.85854 14.4471 2.19364 13.9322 2.66537 13.5647C3.1371 13.1972 3.71829 12.9982 4.31628 12.9995H4.32323C5.03405 13.001 5.71522 13.2845 6.21719 13.7878C6.71916 14.291 7.00091 14.9729 7.00057 15.6837C7.0003 16.2825 6.79995 16.864 6.43135 17.3359C6.06275 17.8078 5.54703 18.143 4.96613 18.2882Z" stroke="#2F57F4" stroke-width="1.5" stroke-linecap="round" stroke-linejoin="round"/>
</svg>
