<svg width="24" height="24" viewBox="0 0 24 24" fill="none" xmlns="http://www.w3.org/2000/svg">
<path opacity="0.75" d="M11.876 16.0112L14.9302 7H12.469L10.0235 14.3836H11.1615L8.80612 7H6.41108L9.36188 16.0112H11.876Z" fill="white"/>
<path d="M12.4357 7.00006L9.48486 16.0112H11.9461L14.2882 10.2817H13.1502L15.5055 16.0112H17.9006L14.9498 7.00006H12.4357Z" fill="white"/>
<path d="M18.5348 7.00006L15.584 16.0112H18.0452L20.3873 10.2817H19.2493L21.6047 16.0112H23.9997L21.0489 7.00006H18.5348Z" fill="white"/>
<path d="M1.46878 12.6502V10.361H5.22674V12.6502H1.46878ZM1.42908 9.28918L2.39504 8.2306V14.9526L1.36292 13.722H5.92805V16.0112H0V7H5.92805V9.28918H1.42908Z" fill="white"/>
</svg>
