
<svg width="636" height="154" viewBox="0 0 636 154" fill="none" xmlns="http://www.w3.org/2000/svg">
<path d="M20.9805 14.124C20.9406 14.3234 20.8343 14.5034 20.6788 14.6346L19.4826 15.9418V16.4524C19.7842 16.4524 19.7842 16.4524 19.7842 16.192C20.3823 15.6814 20.9805 15.4057 21.5786 14.8848C21.8751 14.6244 21.8751 14.6244 22.1768 14.6244L22.4733 14.8848C22.1768 15.3954 21.8751 15.6712 21.5786 16.192C21.5786 16.192 21.8751 16.192 21.8751 16.4524C21.8751 16.4524 22.1768 16.4524 22.1768 16.192C22.9255 15.7422 23.6262 15.217 24.2677 14.6244C25.464 13.5776 26.9568 12.7912 28.1531 11.7444C28.4547 11.484 28.7512 11.484 29.0528 11.2338H29.3493C29.3493 11.4942 29.3493 11.4942 29.0528 11.7444C28.3926 12.4799 27.7926 13.2671 27.2584 14.0984C26.9568 14.3589 26.9568 14.3589 26.9568 14.6091H27.2584L27.5549 14.3435C29.013 12.7221 30.6146 11.2352 32.3401 9.90108C32.6366 9.90108 32.6366 9.90108 32.9382 9.63556L33.2347 9.90108C33.2342 9.93825 33.226 9.97491 33.2104 10.0087C33.1949 10.0425 33.1724 10.0726 33.1444 10.0971C33.1165 10.1217 33.0837 10.1401 33.0482 10.1512C33.0126 10.1623 32.9752 10.1658 32.9382 10.1615C32.6366 10.4219 32.6366 10.6721 33.2347 10.6721C33.3945 10.6905 33.5563 10.677 33.7108 10.6323C33.8653 10.5876 34.0093 10.5126 34.1345 10.4117C34.431 10.4117 35.0291 9.90108 35.6273 9.62534C38.6307 7.76818 41.9806 6.53995 45.4736 6.0152H46.3683C37.1201 9.15556 29.651 14.9103 24.8658 22.7587C25.1623 22.7587 25.1623 22.7587 25.1623 22.4932C27.5549 20.6651 29.9475 19.0924 32.3196 17.5248C34.2821 16.0548 36.5165 14.9875 38.8941 14.3844C39.0538 14.4028 39.2157 14.3893 39.3702 14.3446C39.5246 14.2998 39.6687 14.2249 39.7938 14.124L39.4922 14.3844C37.3694 15.1615 35.3596 16.2176 33.5159 17.5248C30.9263 19.0271 29.0083 21.4597 28.1531 24.3263C27.5549 26.1091 27.5549 28.038 28.1531 29.8207C28.1531 30.0811 28.4547 30.0811 28.4547 30.3313C28.7512 29.8207 29.0528 29.5449 29.3493 29.0241C32.4943 24.9387 36.7555 21.8495 41.6189 20.129C43.759 19.0832 46.1125 18.5466 48.495 18.5613C52.3405 18.0815 56.2352 18.9186 59.5427 20.9358C61.3465 21.9964 63.0476 23.222 64.6244 24.597C66.2573 25.9352 67.7601 27.4244 69.113 29.0445C70.0077 29.8309 69.7111 29.8309 68.8114 30.3517C67.3734 30.8726 66.0529 31.6727 64.926 32.7057C64.926 32.9662 64.6244 32.9662 64.6244 32.9662L64.926 33.2317C66.1223 32.7211 67.0169 32.1849 68.2132 31.6589C67.9167 31.9245 67.9167 32.1696 67.6151 32.1696C66.1223 33.2164 64.926 33.9976 63.4332 35.0444C62.8351 35.555 62.5334 36.0657 61.9353 36.6171H62.5335C62.8775 36.3401 63.2915 36.1634 63.7297 36.1065L64.926 35.3201C65.2225 36.3414 65.5241 37.1533 65.8207 38.2001C66.1223 37.6895 66.4188 37.4137 66.7204 36.8929H67.017C67.1284 36.9877 67.2143 37.1089 67.267 37.2453C67.3197 37.3817 67.3374 37.5291 67.3186 37.6741C67.3186 37.9397 67.6151 37.9397 67.6151 37.9397C67.9167 37.6742 67.9167 37.6742 67.9167 37.4291C67.9167 37.1839 68.2132 37.1686 68.2132 36.9184C68.2132 37.1788 68.5149 37.1788 68.5149 37.4291C68.625 37.5258 68.7097 37.6481 68.7614 37.7852C68.8131 37.9224 68.8303 38.0701 68.8114 38.2154H69.113C69.2232 38.1187 69.3079 37.9963 69.3596 37.8592C69.4113 37.7221 69.4284 37.5744 69.4095 37.4291C69.5464 37.1147 69.7512 36.8344 70.0093 36.6084C70.2674 36.3824 70.5723 36.2162 70.9023 36.1218C72.0986 35.6112 72.6968 34.5542 72.4002 33.5074C72.0986 32.9968 72.0986 32.4862 71.8021 31.9398V31.1483H72.0986L72.4002 31.4087C73.893 32.716 75.6875 33.5023 77.4819 34.2887C81.0605 35.8563 84.9561 37.1635 88.545 38.4707C88.8915 38.5374 89.2062 38.717 89.4396 38.9814C89.7146 39.3647 90.0724 39.6812 90.4866 39.9075C90.9008 40.1338 91.3607 40.2641 91.8322 40.2886C92.7114 40.504 93.6171 40.5917 94.5213 40.549C94.8229 40.549 95.421 40.549 95.421 40.0384C96.0192 39.252 96.3157 39.252 97.512 39.5277C98.9446 39.8343 100.349 40.2613 101.709 40.8043C102.112 41.039 102.561 41.1838 103.025 41.2287C103.489 41.2737 103.958 41.2177 104.398 41.0647C105.386 40.8485 106.308 40.4004 107.087 39.7575C108.081 39.1309 108.919 38.2874 109.538 37.2907C110.158 36.2939 110.544 35.1698 110.666 34.0027C110.769 33.5269 110.739 33.0321 110.582 32.5715C110.424 32.111 110.144 31.7019 109.771 31.3883C109.173 30.8777 108.273 30.3671 107.675 29.8207C106.566 29.0838 105.645 28.0975 104.986 26.9407C104.986 26.1595 104.388 25.6335 104.388 25.1127C102.506 22.6823 100.171 20.638 97.512 19.0924C94.2247 16.7384 90.9375 14.9103 87.6452 12.8168C86.6751 12.3246 85.9279 11.4834 85.5542 10.4628C84.9682 8.96172 84.6632 7.3659 84.6545 5.75478C84.6545 5.49436 84.6545 5.24415 84.358 5.24415C84.0614 5.24415 83.7598 5.24415 83.7598 4.97863V3.66121H83.4633L82.8652 4.44757H82.5635V2.87484H82.2824C82.2824 3.38546 81.9807 3.66121 81.9807 3.92163C81.5656 3.32647 81.0623 2.79787 80.4879 2.354C80.1863 2.09358 79.5882 1.84337 79.2917 1.56763C78.99 1.56763 78.3919 1.30721 78.0954 1.30721C77.2007 1.56763 76.6026 2.09358 76.0044 1.30721C75.1047 1.56763 75.1046 1.81784 75.1046 2.09358C75.4063 2.354 75.1047 2.87484 74.8081 2.87484C74.21 3.38546 74.21 3.38546 74.8081 4.18715C75.9746 5.15567 77.0729 6.20323 78.0954 7.32241L78.3919 7.58793C78.3919 7.84835 77.4972 7.84835 76.8991 7.58793C75.1047 7.0773 73.3204 6.27562 71.2193 5.75478C68.2383 4.70121 65.0973 4.17085 61.9353 4.18715C60.4049 4.20545 58.8844 3.93878 57.4518 3.40078C56.2555 2.61442 54.7627 2.09358 53.5664 1.30721C52.837 0.794601 51.9995 0.45619 51.1184 0.318077C50.2374 0.179964 49.3363 0.245837 48.4848 0.510624C47.8866 0.510624 46.9869 0.776154 46.3887 0.776154C44.2326 0.276377 42.0277 0.016081 39.8143 0C36.8236 0 34.1345 0.260418 31.1591 0.260418L25.1777 0.771046C24.8812 0.771046 24.8812 0.771047 24.8812 1.03147C25.4793 1.29189 26.0775 1.29189 26.6756 1.5421C26.9494 1.80172 27.2864 1.9854 27.6531 2.07496C28.0199 2.16453 28.4037 2.15686 28.7665 2.05273C29.3647 1.79231 29.6663 2.05273 30.2593 2.31315C27.5919 3.29438 24.9896 4.4439 22.4682 5.75478C23.1752 5.79697 23.884 5.7087 24.5591 5.49436C25.2334 5.23371 25.9808 5.23371 26.6551 5.49436C23.9355 6.05322 21.3169 7.02261 18.8895 8.36919C19.9712 8.14116 21.0778 8.05363 22.1819 8.10878L19.1911 9.41599C19.7893 9.41599 20.0858 9.6764 20.684 9.92661C19.0227 10.4562 17.4209 11.1561 15.9039 12.0151C16.6103 12.0399 17.3162 11.952 17.9949 11.7547C18.3092 11.5613 18.6712 11.4589 19.0403 11.4589C19.4095 11.4589 19.7715 11.5613 20.0858 11.7547C16.5072 13.0619 12.9285 14.1087 9.9225 15.6814C13.5062 15.1708 17.3916 15.6967 20.9805 14.124ZM102.297 37.6639C103.192 37.4035 104.388 37.1533 105.283 36.8827C105.584 36.6223 105.881 36.6223 106.182 36.3721C106.182 36.3721 106.479 36.372 106.479 36.6376C106.182 37.1482 106.182 37.4188 105.881 37.9448C105.518 38.5117 105.037 38.9927 104.469 39.3543C103.901 39.7159 103.261 39.9493 102.594 40.0384C101.995 40.0384 101.699 40.0384 101.397 39.5277C100.799 38.7107 101.397 38.1899 102.297 37.6639ZM96.0192 33.7423C96.5599 33.7414 97.0853 33.9212 97.512 34.2529C97.8085 34.5134 97.8085 34.5134 97.8085 34.7636C98.1101 35.5499 97.512 35.5499 96.6173 35.5499C96.0192 35.2844 95.7176 35.2844 95.1194 35.0393C94.5467 34.8259 93.9349 34.7371 93.325 34.7789C93.6172 34.355 94.0308 34.0293 94.5115 33.8443C94.9923 33.6593 95.5178 33.6238 96.0192 33.7423Z" fill="white"/>
<path d="M17.9907 80.8275C17.9907 80.562 17.6891 80.562 17.6891 80.3169V80.8275H17.9907Z" fill="white"/>
<path d="M56.5576 70.3645C58.0504 70.8751 59.2467 71.3858 60.7395 71.9321C60.7395 72.1926 61.3376 71.9321 61.6393 71.9321C61.7982 71.9504 61.9593 71.9368 62.1129 71.8921C62.2665 71.8474 62.4097 71.7724 62.5339 71.6717V70.8853C62.5317 70.6033 62.4454 70.3284 62.286 70.0956C62.1267 69.8628 61.9015 69.6826 61.6393 69.5781C58.211 67.5948 54.6069 65.9316 50.8727 64.6097C48.5074 63.5997 45.9934 62.9805 43.4291 62.7766L37.1205 61.9902C36.7377 62.0036 36.356 61.9416 35.9972 61.8075C35.6384 61.6734 35.3096 61.47 35.0296 61.2089C34.7331 60.9485 34.7331 60.9485 34.7331 60.6983H35.6277L36.2259 60.4379C36.2259 60.4379 35.9294 60.4379 35.9294 60.1775C35.9294 59.917 35.6277 59.6668 35.6277 59.3911C35.6277 58.8805 36.2259 58.3698 35.6277 57.5631C36.2259 57.5631 36.5275 57.8235 36.824 57.8235C37.4222 58.0839 37.4222 57.8235 37.7187 57.8235C37.7187 57.5631 37.7187 57.3128 37.4222 57.3128L36.5275 56.8022L34.7382 55.1937C34.4366 54.9282 34.4366 54.9282 34.4366 54.6831C34.7382 54.9435 34.7382 54.9435 35.0347 54.9435C36.1829 55.4941 37.3812 55.9336 38.6133 56.2558H39.508V55.9903C38.3117 55.7299 37.4171 54.9435 36.5224 54.4227C36.5224 54.1623 36.5224 54.1623 36.8189 54.1623L37.1154 53.8967C36.8189 53.8967 36.8189 53.6363 36.5224 53.6363C33.8282 53.1257 31.7373 51.5427 29.9428 49.7147C28.5397 48.28 27.6025 46.4559 27.2538 44.4808C26.6607 42.8927 26.6607 41.3302 26.6607 39.497C26.9573 37.8541 26.9573 36.1715 26.6607 34.5286C26.6607 32.9559 26.3591 31.3882 26.3591 29.8206C26.3591 29.0342 26.6607 28.2479 26.6607 27.4666V26.956H26.3591C24.5214 32.9924 23.4177 39.2277 23.0719 45.5275C22.1772 44.7463 22.1772 43.6995 22.1772 42.6527C22.1255 40.9844 22.223 39.3148 22.4686 37.6639C23.111 35.1669 23.6094 32.6351 23.9614 30.081V29.5704C23.6649 29.8359 23.6649 30.081 23.6649 30.5917C23.0668 32.4248 22.4686 33.732 21.8705 35.2997C21.2004 36.7187 20.6994 38.2115 20.3777 39.7472C19.483 42.8927 19.483 46.2986 19.483 49.6994C19.483 51.267 20.0812 53.1002 20.6793 54.6678C21.8756 57.5477 24.8663 59.9017 27.5554 61.2089C29.3498 61.9902 31.7424 62.2302 33.8333 62.7766C34.3754 62.7769 34.9021 62.9564 35.3312 63.2872C35.4896 63.5367 35.711 63.7402 35.973 63.8773C36.235 64.0145 36.5285 64.0804 36.824 64.0685C37.4508 64.1145 38.0615 64.2883 38.6185 64.5791C42.5085 66.3965 46.2134 68.5854 49.6815 71.1151L50.5864 71.9321C51.461 72.8972 52.0781 74.0668 52.3808 75.3329V75.8436C52.3808 75.8436 52.0792 75.8436 52.0792 75.5831C49.9921 73.2777 47.6897 71.1763 45.2031 69.3075C43.8335 68.1828 42.1792 67.4583 40.4231 67.2139C39.5998 67.2017 38.7869 67.0282 38.0305 66.7033C36.8343 66.1927 35.638 65.682 34.1452 65.1306C33.3258 65.0862 32.5185 64.9139 31.7526 64.6199C31.7526 64.6199 31.451 64.6199 31.451 64.8804C31.7526 64.8804 31.7526 64.8804 32.0491 65.1408C34.4417 66.448 36.5377 67.7552 38.9252 69.0675C40.4231 69.8488 41.9159 70.8956 43.4138 71.6819C44.6297 72.277 45.5834 73.2986 46.0927 74.5517L47.9945 77.3244C47.9536 77.3601 47.9485 77.3754 47.8871 77.4316L47.5855 77.1712C47.5855 76.9057 47.5855 76.9057 47.289 76.6606C45.5596 75.1311 43.6527 73.8145 41.6092 72.7389C39.6 71.6819 37.5858 70.6454 35.4744 69.7518C35.822 69.8845 36.1645 70.0224 36.4968 70.1194C34.9398 68.9867 33.2148 68.1046 31.3845 67.505C32.4131 68.2308 33.5027 68.8664 34.6411 69.4045C33.8691 69.0982 33.1074 68.8071 32.2843 68.5518C31.088 68.2914 30.1882 68.0412 28.9971 67.7654C28.6954 67.7654 28.0973 67.7654 28.0973 68.0309C27.8008 68.0309 28.0973 68.2913 28.0973 68.5415C28.0973 68.7918 28.0973 68.802 28.3989 68.802C30.241 69.5702 32.0368 70.4449 33.7771 71.4215C35.3555 72.4619 36.8714 73.5941 38.3168 74.8121C40.0442 76.343 41.5543 78.1021 42.8054 80.0409C44.2238 82.5997 44.9448 85.4856 44.8964 88.4101V88.9207C45.4945 88.6552 44.5948 87.8995 45.4945 87.6135C45.4945 87.6135 45.791 87.6135 45.791 87.8739C45.7426 88.6706 45.845 89.4692 46.0927 90.2279C46.3892 91.5351 46.6908 92.8424 46.9873 94.1496C46.9873 94.41 47.289 94.41 47.289 94.6602H47.5855V93.9044C47.7419 93.774 47.8485 93.5937 47.8871 93.3938C47.8871 93.6543 48.1836 93.6542 48.1836 93.9044C48.1649 94.0502 48.1826 94.1984 48.2352 94.3356C48.2879 94.4728 48.3738 94.5949 48.4852 94.6908L49.0834 95.2015C49.0834 94.941 49.3799 94.941 49.3799 94.6908V94.1802H49.6815C49.6815 94.4406 49.978 94.6908 49.978 94.9666C49.9991 95.1123 50.0724 95.2454 50.1843 95.3412C50.2962 95.437 50.4391 95.4889 50.5864 95.4874C51.1846 95.4874 51.4811 95.227 51.4811 94.9768C51.4811 94.7266 51.1846 94.7164 51.1846 94.4662C51.0731 94.3713 50.9872 94.2502 50.9345 94.1137C50.8818 93.9773 50.8641 93.8299 50.8829 93.6849C51.1846 93.6849 51.1846 93.9453 51.4811 93.9453C51.7776 93.9453 51.7827 93.9453 52.0792 94.2057C51.1846 92.6381 52.0792 91.3309 51.7827 90.0237H52.0792C52.6774 91.0705 52.979 91.8517 53.5771 92.8985H53.8736C53.5771 91.5913 53.2755 90.5445 52.979 89.4977C53.5771 90.5445 53.8736 91.8517 55.0699 92.1122C54.9948 90.8078 54.805 89.5126 54.5025 88.2416C54.7268 88.9122 54.9162 89.5939 55.0699 90.2841C55.6681 91.8517 55.6681 93.4245 55.9697 95.2525C55.9697 95.5129 55.9697 95.5129 56.2662 95.7632C57.166 96.0236 58.0606 95.7631 58.3571 95.2525C58.9553 94.4661 58.9553 93.9453 59.2569 93.159V90.2841C58.971 87.946 58.3673 85.6578 57.4625 83.4825V82.9719H57.7437C58.94 83.9932 59.5381 85.5863 60.4379 86.8935H60.7344C60.7701 86.5277 60.664 86.1622 60.4379 85.8723C59.5381 84.3046 58.9399 82.7319 58.0453 81.1643C56.849 78.5499 55.0546 75.9304 53.5618 73.3159V72.8053C53.8583 73.0657 53.8583 73.0657 54.1599 73.0657C54.4616 73.0657 54.7581 73.3262 55.0546 73.3262C55.0918 73.3304 55.1295 73.3269 55.1653 73.3159C55.2011 73.3048 55.2342 73.2865 55.2626 73.262C55.2909 73.2375 55.3139 73.2075 55.33 73.1737C55.3461 73.1399 55.355 73.1031 55.3562 73.0657C54.6944 72.5203 54.0928 71.9057 53.5618 71.2326L53.8583 70.9722C54.7581 71.4828 55.3562 71.7585 56.2509 72.2794L56.5525 72.0189L55.9544 71.2326C56.256 71.1458 56.256 71.1458 56.5576 70.3645Z" fill="white"/>
<path d="M3.64052 86.2964C3.66427 86.2688 3.68646 86.2398 3.70698 86.2096C3.38491 86.5007 3.08328 86.7866 2.74586 87.0828L3.64052 86.2964Z" fill="white"/>
<path d="M17.0905 75.854C17.0905 76.1196 17.3921 76.1196 17.3921 76.3647V77.6719C17.3436 78.5538 17.4438 79.4376 17.6886 80.2863V80.0259C17.6672 79.8401 17.6828 79.652 17.7345 79.4723C17.7863 79.2926 17.8732 79.125 17.9903 78.9791C17.9903 78.4685 17.9903 78.4685 18.2868 78.4685C18.2868 78.7289 18.5884 78.7289 18.5884 78.7289V79.5153C18.5884 80.0259 18.8849 80.5365 18.8849 81.0829H19.1866C19.2254 80.8843 19.3298 80.7045 19.4831 80.5722C19.7395 78.1403 19.8403 75.6946 19.7847 73.2498V71.6822C19.7847 71.6822 20.0812 71.6822 20.0812 71.4218C21.0133 73.2787 22.4687 74.8229 24.2682 75.8643C23.3736 74.2966 22.7754 72.9894 21.8756 71.1563C22.1773 71.1563 22.1773 71.4218 22.4738 71.4218C23.0719 71.6822 23.3736 71.9324 23.9666 72.203C24.5535 72.7963 25.2714 73.244 26.0626 73.5103C26.3592 73.5103 26.3591 73.7758 26.6608 73.7758L26.9573 73.5103C26.6608 73.2498 26.6608 73.2498 26.6608 72.9996C25.8732 72.2031 25.1707 71.3269 24.5647 70.3852V69.8746H25.1629C25.4645 69.8746 25.761 70.135 26.0626 70.135L26.3591 69.8746L25.4645 69.364C25.1629 69.1035 25.1629 69.1035 25.1629 68.8533H25.761C25.9212 68.8347 26.0834 68.8487 26.238 68.8943C26.3927 68.9399 26.5365 69.0163 26.6608 69.1189C26.6613 69.0815 26.6696 69.0447 26.6851 69.0107C26.7006 68.9766 26.723 68.9462 26.7508 68.9212C26.7787 68.8963 26.8114 68.8774 26.8469 68.8657C26.8825 68.854 26.92 68.8498 26.9573 68.8533C24.7233 67.8347 22.7731 66.2849 21.2775 64.3394C19.8575 62.7136 18.9255 60.7207 18.5884 58.5897C19.4831 59.8969 20.3828 60.9437 21.2775 62.2509C22.1722 63.5581 23.6701 64.3394 25.1629 64.8653C25.1629 64.6049 25.1629 64.6049 24.8663 64.6049C21.6618 61.9097 19.4519 58.2213 18.5884 54.1268C18.5748 52.8535 18.2669 51.6005 17.6886 50.4656C17.0815 49.0621 16.7767 47.5468 16.794 46.018C16.8476 45.0335 17.0493 44.0627 17.3921 43.1381C17.3569 42.7724 17.463 42.407 17.6886 42.1168H17.0905C17.0905 42.3824 16.794 42.3824 16.794 42.3824C16.5631 42.67 16.4548 43.0368 16.4924 43.4036C16.1958 44.4249 15.8993 45.2368 15.5977 46.2836C15.5977 46.544 15.3012 46.544 15.3012 46.544H14.9996C15.5977 39.2216 17.9903 32.42 22.1568 25.8789H21.8552C21.2571 26.1444 20.9605 26.6652 20.3624 26.9001L20.0608 26.6397C20.6589 26.9001 21.2571 26.1291 21.8552 25.3325C21.8552 25.3325 21.5587 25.3325 21.5587 25.0721L18.89 27.2014C16.7991 29.295 15.0047 31.3885 13.2102 33.4821C11.7174 35.3102 9.92302 37.1433 8.43022 39.2369C6.03765 41.8513 3.64508 44.2053 1.27296 46.8197C0.378307 47.0852 -0.219833 47.3304 0.0766824 47.841C0.37831 47.5806 0.378312 47.5806 0.674827 47.5806C2.17274 46.5593 3.66553 45.7474 5.15833 44.7057L5.75648 44.1951C5.64629 44.2918 5.56161 44.4142 5.5099 44.5513C5.45819 44.6884 5.44105 44.8362 5.45996 44.9815C5.49725 45.1806 5.60194 45.3609 5.75648 45.4921C6.0581 45.4921 6.35461 45.4921 6.35461 45.2317C7.71154 44.0076 8.99525 42.705 10.1991 41.3305L10.5007 41.0649H10.7972C9.60605 45.2521 7.51 49.4393 6.0172 53.6213C6.0172 53.6213 6.31372 53.6213 6.31372 53.8817C6.93486 53.6124 7.46166 53.1644 7.82697 52.5949C7.82697 52.5949 8.12349 52.5949 8.12349 52.8605C7.82697 53.3711 7.52534 54.1677 7.22883 54.6885C6.98274 55.2666 6.87929 55.8953 6.9272 56.5217C7.22883 56.2612 7.22883 56.2612 7.22883 56.011C7.76631 55.0234 8.47415 54.1384 9.31976 53.3966C9.31976 53.1362 9.6214 53.1362 9.6214 53.1362C9.62187 53.1734 9.63014 53.21 9.64569 53.2438C9.66124 53.2776 9.68372 53.3077 9.71167 53.3323C9.73962 53.3568 9.77242 53.3752 9.80794 53.3863C9.84347 53.3974 9.88094 53.4009 9.91791 53.3966V53.6162L10.2144 53.8766L10.5161 53.6162C10.7539 53.224 10.8579 52.7653 10.8126 52.309C11.0425 52.0208 11.1507 51.6544 11.1142 51.2877H11.7328V51.5481C11.6781 52.7024 11.4771 53.8451 11.1346 54.9489C10.833 56.2612 10.5365 57.3029 10.2349 58.3497C9.93836 59.6569 9.64184 60.9692 9.34022 62.5369C9.35537 62.683 9.3344 62.8307 9.27914 62.9669C9.22388 63.1031 9.13601 63.2237 9.02325 63.3181H9.31976C9.62139 62.8075 9.91791 62.5318 10.2144 62.0058C10.3396 61.9049 10.4836 61.8299 10.6381 61.7852C10.7926 61.7405 10.9544 61.727 11.1142 61.7454C11.1948 61.8069 11.2624 61.8836 11.3133 61.9712C11.3642 62.0589 11.3973 62.1556 11.4107 62.256C11.1142 63.0373 10.8126 63.5632 10.5161 64.3445C10.3201 64.9157 10.2721 65.5271 10.3767 66.1218C10.4813 66.7165 10.735 67.275 11.1142 67.7453C11.1142 68.0108 11.1142 68.0108 11.4107 68.2559C11.9941 66.9732 12.6958 65.7475 13.5068 64.5947V65.6415C13.2502 67.5865 12.8503 69.51 12.3105 71.3963C11.6385 73.2781 10.8392 75.1121 9.91791 76.8855C8.17678 80.2067 6.09513 83.3383 3.70644 86.23C5.3935 84.6981 6.9681 83.1662 8.72163 81.8743C8.72163 81.8743 9.02325 81.8743 9.02325 82.1348L4.83626 88.9363C4.83626 88.9363 5.13277 88.9363 5.13277 89.1967C5.73092 88.9363 6.03254 88.4104 6.63068 87.8895C7.22883 87.3687 7.82697 86.5823 8.42511 86.0564C8.72162 86.0564 8.72163 85.796 9.02325 85.796V86.3066C8.72163 86.3066 8.72163 86.5721 8.72163 86.8172C8.72163 86.8172 9.02325 86.8172 9.02325 87.0776C9.31977 86.8172 9.31976 86.8172 9.31976 86.567C9.97597 85.6444 10.5752 84.6826 11.1142 83.6871C11.6906 82.4044 12.624 81.3144 13.8033 80.5467C14.1049 80.2863 14.1049 80.2863 14.4014 80.2863V82.6403H14.703C15.2639 80.3336 15.9621 78.0623 16.794 75.8387L17.0905 75.854ZM17.9903 29.0345C18.2868 29.8209 16.794 31.649 15.8993 32.4353H15.5977C16.3315 31.2583 17.1302 30.123 17.9903 29.0345Z" fill="white"/>
<path d="M108.955 72.3767C108.955 72.6422 109.256 72.6422 109.256 72.8873V72.3767H108.955Z" fill="white"/>
<path d="M126.893 105.338C126.591 105.598 126.591 105.598 126.295 105.598C124.797 106.619 123.304 107.431 121.811 108.473L121.213 108.983C121.323 108.887 121.408 108.764 121.46 108.627C121.511 108.49 121.528 108.342 121.51 108.197C121.472 107.998 121.368 107.818 121.213 107.686C120.911 107.686 120.615 107.686 120.615 107.947C119.245 109.178 117.947 110.487 116.73 111.868L116.428 112.134H116.131C117.328 107.947 119.419 103.76 120.911 99.5776C120.911 99.5776 120.615 99.5777 120.615 99.3172C119.997 99.5946 119.475 100.05 119.117 100.624C119.117 100.624 118.82 100.624 118.82 100.359C119.117 99.8483 119.419 99.0517 119.715 98.5309C119.961 97.9528 120.065 97.3241 120.017 96.6977C119.715 96.9581 119.715 96.9581 119.715 97.2083C119.178 98.1959 118.47 99.081 117.624 99.8227C117.624 100.083 117.328 100.083 117.328 100.083C117.326 100.046 117.318 100.009 117.301 99.9752C117.285 99.9414 117.262 99.9114 117.234 99.8869C117.206 99.8624 117.173 99.8441 117.137 99.833C117.101 99.822 117.063 99.8185 117.026 99.8227V99.5725L116.73 99.3121L116.428 99.5725C116.19 99.9648 116.086 100.423 116.131 100.88C115.901 101.168 115.793 101.534 115.83 101.901H115.232V101.641C115.286 100.486 115.487 99.3436 115.83 98.2398C116.131 96.9275 116.428 95.8858 116.73 94.839C117.026 93.5318 117.328 92.2195 117.624 90.6519C117.605 90.5061 117.623 90.358 117.676 90.2207C117.728 90.0835 117.814 89.9614 117.926 89.8655H117.624C117.328 90.3761 117.026 90.6519 116.73 91.1778C116.604 91.2787 116.46 91.3537 116.306 91.3984C116.151 91.4431 115.99 91.4566 115.83 91.4382C115.749 91.3767 115.682 91.3 115.631 91.2124C115.58 91.1248 115.547 91.028 115.533 90.9276C115.83 90.1464 116.131 89.6204 116.428 88.834C116.623 88.2636 116.67 87.6531 116.566 87.0594C116.461 86.4657 116.208 85.9081 115.83 85.4384C115.83 85.1728 115.83 85.1728 115.533 84.9277C114.95 86.2104 114.248 87.4361 113.437 88.5889V87.5421C113.694 85.5971 114.094 83.6736 114.633 81.7874C115.312 79.9067 116.118 78.0744 117.046 76.3032C118.789 72.9874 120.87 69.8609 123.258 66.974C121.571 68.5059 119.996 70.0378 118.243 71.3297C118.243 71.3297 117.946 71.3297 117.946 71.0693L122.128 64.2677C122.128 64.2677 121.832 64.2677 121.832 64.0073C121.233 64.2677 120.932 64.7937 120.334 65.3145C119.736 65.8353 119.137 66.6217 118.539 67.1476C118.243 67.1476 118.243 67.4081 117.946 67.4081V66.8974C118.243 66.8974 118.243 66.6319 118.243 66.3868C118.243 66.3868 117.946 66.3868 117.946 66.1264C117.645 66.3868 117.645 66.3868 117.645 66.637C116.988 67.5597 116.389 68.5214 115.85 69.517C115.274 70.7996 114.34 71.8897 113.161 72.6573C112.859 72.9177 112.859 72.9177 112.563 72.9177V70.5638H112.261C111.703 72.8711 111.005 75.1425 110.17 77.3653H109.874C109.874 77.0998 109.572 77.0998 109.572 76.8547V75.5475C109.621 74.6656 109.521 73.7818 109.276 72.9331V73.1935C109.297 73.3792 109.282 73.5674 109.23 73.747C109.178 73.9267 109.091 74.0944 108.974 74.2403C108.974 74.7509 108.974 74.7509 108.678 74.7509C108.678 74.4905 108.376 74.4905 108.376 74.4905V73.6837C108.376 73.1731 108.079 72.6369 108.079 72.1161H107.778C107.741 72.3152 107.636 72.4955 107.481 72.6267C107.225 75.0603 107.124 77.5078 107.18 79.9542V81.5218C107.18 81.5218 106.883 81.5218 106.883 81.7823C105.951 79.9253 104.496 78.3811 102.696 77.3398C103.596 78.9074 104.194 80.2146 105.089 82.0478C104.787 82.0478 104.787 81.7823 104.491 81.7823C103.892 81.5218 103.596 81.2716 102.998 81.001C102.411 80.4078 101.693 79.9601 100.902 79.6938C100.605 79.6938 100.605 79.4283 100.304 79.4283L100.007 79.6938C100.304 79.9542 100.304 79.9542 100.304 80.2044C101.091 81.0009 101.794 81.8771 102.4 82.8188V83.3295H101.802C101.5 83.3295 101.203 83.069 100.902 83.069L100.605 83.3295L101.5 83.8401C101.802 84.1005 101.802 84.1005 101.802 84.3507H101.198C101.038 84.3693 100.876 84.3554 100.721 84.3097C100.567 84.2641 100.423 84.1877 100.299 84.0852C100.298 84.1225 100.29 84.1594 100.274 84.1934C100.259 84.2274 100.236 84.2579 100.208 84.2828C100.181 84.3077 100.148 84.3266 100.112 84.3383C100.077 84.35 100.039 84.3542 100.002 84.3507C102.228 85.349 104.178 86.8738 105.682 88.7932C107.106 90.4403 108.033 92.457 108.356 94.6092C107.461 93.302 106.561 92.2552 105.666 90.948C104.772 89.6408 103.274 88.8544 101.781 88.3336C101.781 88.594 101.781 88.594 102.078 88.594C105.28 91.2866 107.49 94.9711 108.356 99.0619C108.369 100.335 108.677 101.588 109.255 102.723C109.862 104.127 110.167 105.642 110.15 107.171C110.096 108.155 109.895 109.126 109.552 110.051C109.594 110.425 109.487 110.801 109.255 111.097H109.853C109.853 110.832 110.15 110.832 110.15 110.832C110.381 110.544 110.489 110.177 110.452 109.811C110.748 108.764 111.05 107.977 111.346 106.931C111.346 106.67 111.643 106.67 111.643 106.67H111.934C111.336 113.993 108.943 120.794 104.777 127.335H105.079C105.677 127.07 105.973 126.549 106.571 126.314L106.873 126.575C106.275 126.314 105.677 127.085 105.079 127.882C105.079 127.882 105.375 127.882 105.375 128.142L108.069 126.054C110.16 123.96 111.955 121.867 113.749 119.773C115.242 117.945 117.036 116.112 118.529 114.018C120.922 111.404 123.314 109.05 125.686 106.435C126.591 106.119 127.189 105.858 126.893 105.338ZM108.954 124.169C108.657 123.383 110.15 121.555 111.05 120.769H111.346C110.612 121.946 109.814 123.081 108.954 124.169Z" fill="white"/>
<path d="M123.304 66.8921C123.279 66.8921 123.263 66.9533 123.238 66.9789C123.56 66.6878 123.862 66.4019 124.204 66.1057L123.304 66.8921Z" fill="white"/>
<path d="M105.963 139.08C106.003 138.88 106.109 138.7 106.265 138.569L107.461 137.262V136.751C107.159 136.751 107.159 136.751 107.159 137.012C106.561 137.522 105.963 137.798 105.365 138.319C105.068 138.579 105.068 138.579 104.767 138.579L104.47 138.319C104.767 137.808 105.068 137.533 105.365 137.012C105.365 137.012 105.068 137.012 105.068 136.751C105.068 136.751 104.767 136.751 104.767 137.012C104.018 137.462 103.317 137.987 102.676 138.579C101.479 139.626 99.9867 140.413 98.7904 141.459C98.4888 141.72 98.1922 141.72 97.8906 141.97H97.6197C97.6197 141.71 97.6197 141.71 97.9162 141.459C98.5764 140.724 99.1764 139.937 99.7106 139.105C100.012 138.845 100.012 138.845 100.012 138.595H99.6646L99.3681 138.86C97.91 140.482 96.3084 141.969 94.583 143.303C94.2864 143.303 94.2864 143.303 93.9848 143.568L93.6883 143.303C93.6888 143.266 93.697 143.229 93.7126 143.195C93.7281 143.161 93.7506 143.131 93.7786 143.107C93.8065 143.082 93.8393 143.064 93.8749 143.053C93.9104 143.042 93.9478 143.038 93.9848 143.042C94.2864 142.782 94.2864 142.532 93.6883 142.532C93.5285 142.513 93.3667 142.527 93.2122 142.572C93.0577 142.616 92.9137 142.691 92.7885 142.792C92.492 142.792 91.8939 143.303 91.2957 143.579C88.2902 145.456 84.9329 146.702 81.4289 147.24H80.5343C89.8029 144.099 97.2771 138.345 102.057 130.496C101.761 130.496 101.761 130.496 101.761 130.762C99.3681 132.59 96.9755 134.163 94.6034 135.73C92.6415 137.201 90.4068 138.268 88.0289 138.871C87.8692 138.852 87.7073 138.866 87.5528 138.91C87.3983 138.955 87.2543 139.03 87.1292 139.131L87.4308 138.871C89.5536 138.093 91.5634 137.037 93.4071 135.73C96.0044 134.232 97.9302 131.799 98.7904 128.929C99.3886 127.146 99.3886 125.217 98.7904 123.434C98.7904 123.174 98.4888 123.174 98.4888 122.924C98.1922 123.434 97.8906 123.705 97.5941 124.231C94.4502 128.317 90.1887 131.407 85.3245 133.126C83.1844 134.172 80.8309 134.708 78.4484 134.694C74.602 135.181 70.7037 134.351 67.3905 132.34C65.5868 131.279 63.8856 130.053 62.3088 128.678C60.676 127.34 59.1731 125.851 57.8202 124.231C56.9256 123.444 57.2221 123.444 58.1218 122.924C59.5598 122.403 60.8803 121.603 62.0072 120.57C62.0072 120.309 62.3088 120.309 62.3088 120.309L62.0072 120.044C60.8109 120.554 59.9163 121.09 58.72 121.616C59.0165 121.351 59.0165 121.106 59.3181 121.106C60.8109 120.059 62.0072 119.278 63.5051 118.231C64.0982 117.72 64.3998 117.21 64.9979 116.658H64.3895C64.0461 116.936 63.6318 117.113 63.1933 117.169L61.997 117.955C61.7005 116.934 61.3988 116.122 61.1023 115.075C60.8007 115.586 60.5042 115.862 60.2026 116.382H59.906C59.7942 116.287 59.7081 116.165 59.6554 116.027C59.6027 115.89 59.5852 115.742 59.6044 115.596C59.6044 115.336 59.3079 115.336 59.3079 115.336C59.0063 115.596 59.0063 115.596 59.0063 115.846C59.0063 116.097 58.7098 116.107 58.7098 116.357C58.7098 116.097 58.4081 116.097 58.4081 115.846C58.2983 115.749 58.2139 115.627 58.1622 115.49C58.1105 115.353 58.0932 115.205 58.1116 115.06H57.81C57.6994 115.156 57.6145 115.279 57.5628 115.416C57.511 115.553 57.4941 115.701 57.5135 115.846C57.3766 116.161 57.1718 116.441 56.9137 116.667C56.6556 116.893 56.3507 117.059 56.0207 117.154C54.8244 117.664 54.2262 118.721 54.5228 119.768C54.8244 120.279 54.8244 120.789 55.1209 121.336V122.122H54.8244L54.5228 121.861C53.03 120.554 51.2355 119.768 49.4411 118.982C45.8625 117.414 41.9669 116.107 38.378 114.8C38.0315 114.733 37.7168 114.553 37.4834 114.289C37.2087 113.905 36.8509 113.589 36.4367 113.362C36.0224 113.136 35.5624 113.006 35.0908 112.982C34.2116 112.766 33.306 112.679 32.4017 112.721C32.1001 112.721 31.502 112.721 31.502 113.232C30.9038 114.018 30.6073 114.018 29.411 113.743C27.981 113.425 26.5803 112.988 25.224 112.435C24.8212 112.201 24.3722 112.056 23.9081 112.011C23.4439 111.966 22.9754 112.022 22.5349 112.175C21.5474 112.391 20.6256 112.839 19.8459 113.482C18.8526 114.109 18.0146 114.952 17.3948 115.949C16.7749 116.946 16.3894 118.07 16.2672 119.237C16.1658 119.713 16.1954 120.207 16.353 120.668C16.5105 121.128 16.7901 121.537 17.1619 121.851C17.76 122.362 18.6598 122.898 19.2579 123.419C20.3669 124.144 21.2912 125.118 21.9573 126.263C21.9573 127.044 22.5554 127.57 22.5554 128.091C24.4378 130.522 26.7726 132.566 29.4315 134.111C32.7187 136.465 36.011 138.294 39.2983 140.387C40.2664 140.88 41.0117 141.721 41.3841 142.741C41.9701 144.242 42.2751 145.838 42.2839 147.449C42.2839 147.71 42.2838 147.96 42.5804 147.96C42.8769 147.96 43.1785 147.96 43.1785 148.225V149.532H43.475L44.0732 148.746H44.3748V150.314H44.6713C44.6713 149.803 44.9729 149.532 44.9729 149.292C45.3996 149.885 45.9132 150.41 46.4964 150.85C46.798 151.11 47.3962 151.361 47.6927 151.636C47.9943 151.636 48.5925 151.897 48.889 151.897C49.7887 151.636 50.3869 151.11 50.9799 151.897C51.8797 151.636 51.8797 151.386 51.8797 151.11C51.5781 150.85 51.8797 150.324 52.1762 150.324C52.7743 149.813 52.7743 149.813 52.1762 149.017C51.0109 148.047 49.9127 146.999 48.889 145.881L48.5925 145.616C48.5925 145.356 49.4871 145.356 50.0853 145.616C51.8797 146.127 53.6639 146.928 55.7651 147.449C58.7412 148.501 61.8768 149.031 65.0337 149.017C66.5641 148.998 68.0846 149.265 69.5172 149.803C70.7135 150.589 72.2063 151.11 73.4026 151.897C74.1328 152.408 74.9707 152.744 75.8518 152.881C76.7328 153.017 77.6334 152.949 78.4842 152.683C79.0824 152.683 79.9821 152.418 80.5803 152.418C82.7283 152.914 84.9245 153.172 87.1292 153.189C90.1199 153.189 92.809 152.928 95.8201 152.928L101.802 152.418C102.098 152.418 102.098 152.418 102.098 152.157C101.5 151.897 100.902 151.897 100.304 151.646C100.03 151.387 99.6929 151.203 99.3261 151.114C98.9594 151.024 98.5756 151.032 98.2127 151.136C97.6146 151.396 97.318 151.136 96.7199 150.875C99.3794 149.907 101.975 148.771 104.491 147.475C103.784 147.432 103.075 147.521 102.4 147.735C101.725 147.996 100.978 147.996 100.304 147.735C103.027 147.177 105.649 146.208 108.079 144.86C106.998 145.088 105.891 145.176 104.787 145.121L107.778 143.813C107.18 143.813 106.883 143.553 106.285 143.303C107.948 142.772 109.551 142.072 111.07 141.214C110.362 141.189 109.654 141.277 108.974 141.475C108.66 141.668 108.298 141.77 107.929 141.77C107.559 141.77 107.198 141.668 106.883 141.475C110.462 140.168 114.04 139.121 117.047 137.548C113.437 138.033 109.552 137.507 105.963 139.08ZM24.6463 115.535C23.7517 115.8 22.5554 116.045 21.6607 116.321C21.3591 116.582 21.0626 116.582 20.761 116.832C20.761 116.832 20.4645 116.832 20.4645 116.566C20.761 116.056 20.761 115.785 21.0626 115.259C21.4255 114.693 21.9075 114.212 22.4752 113.85C23.0429 113.489 23.6826 113.255 24.3498 113.165C24.948 113.165 25.2445 113.166 25.5461 113.676C26.1443 114.493 25.5359 115.014 24.6463 115.535ZM30.9243 119.487C30.3838 119.487 29.8587 119.307 29.4315 118.976C29.135 118.716 29.135 118.716 29.135 118.466C28.8333 117.679 29.4315 117.679 30.3261 117.679C30.9243 117.945 31.2259 117.945 31.824 118.19C32.3968 118.403 33.0086 118.492 33.6185 118.451C33.3263 118.874 32.9127 119.2 32.4319 119.385C31.9511 119.57 31.4256 119.606 30.9243 119.487Z" fill="white"/>
<path d="M102.978 123.123V123.633C103.274 123.373 103.274 123.123 103.274 122.612C103.873 120.779 104.471 119.472 105.069 117.904C105.739 116.485 106.24 114.992 106.562 113.456C107.461 110.316 107.461 106.915 107.461 103.514C107.461 101.947 106.863 100.114 106.265 98.5461C105.069 95.6661 102.078 93.3121 99.3891 92.0049C97.5947 91.2237 95.2021 90.9837 93.1111 90.4373C92.5691 90.437 92.0424 90.2575 91.6132 89.9267C91.4548 89.6772 91.2335 89.4736 90.9715 89.3365C90.7095 89.1994 90.416 89.1335 90.1204 89.1454C89.4942 89.0966 88.884 88.923 88.326 88.6348C84.436 86.8174 80.7311 84.6285 77.2629 82.0987L76.3683 81.3124C75.4937 80.3472 74.8766 79.1777 74.5738 77.9116V77.401C74.5738 77.401 74.8755 77.4009 74.8755 77.6614C76.9714 79.9501 79.2806 82.0343 81.772 83.8859C83.1416 85.0106 84.7959 85.7351 86.552 85.9795C87.3753 85.9917 88.1882 86.1652 88.9446 86.4901C90.1409 87.0008 91.3372 87.5114 92.83 88.0629C93.6493 88.1073 94.4566 88.2796 95.2225 88.5735C95.2225 88.5735 95.5242 88.5735 95.5242 88.3131C95.2225 88.3131 95.2225 88.3131 94.926 88.0527C92.5334 86.7455 90.4425 85.4382 88.0499 84.1259C86.552 83.3447 85.0592 82.2979 83.5664 81.5115C82.3356 80.9231 81.368 79.8983 80.8518 78.6367L78.9551 75.864C78.9909 75.8282 78.996 75.8129 79.0574 75.7567L79.359 76.0171C79.359 76.2827 79.359 76.2827 79.6555 76.5278C81.3877 78.0708 83.2999 79.3995 85.3506 80.4851C87.3598 81.537 89.374 82.5787 91.4854 83.4723C91.1429 83.3396 90.7952 83.2017 90.463 83.1047C92.0097 84.2359 93.7244 85.118 95.5446 85.7191C94.5149 84.9935 93.4255 84.3563 92.2881 83.8144C93.06 84.1259 93.8218 84.417 94.6448 84.6723C95.8411 84.9327 96.7409 85.1829 97.9321 85.4587C98.2337 85.4587 98.8318 85.4587 98.8318 85.1931C99.1283 85.1931 98.8318 84.9327 98.8318 84.6825C98.8318 84.4323 98.8318 84.4221 98.5302 84.4221C96.6881 83.6539 94.8923 82.7792 93.152 81.8026C91.5938 80.7554 90.0968 79.6199 88.6685 78.4018C86.9413 76.8722 85.4327 75.1128 84.185 73.1729C82.7628 70.6154 82.0399 67.7289 82.089 64.8038V64.2931C81.4908 64.5587 82.3906 65.3144 81.4908 65.6003C81.4908 65.6003 81.1943 65.6003 81.1943 65.3399C81.2427 64.5433 81.1404 63.7447 80.8927 62.9859C80.5962 61.6787 80.2945 60.3715 79.998 59.0643C79.998 58.8039 79.6964 58.8039 79.6964 58.5537H79.3999V59.34C79.2434 59.4705 79.1369 59.6508 79.0983 59.8507C79.0983 59.5902 78.8017 59.5902 78.8017 59.34C78.8205 59.1943 78.8028 59.0461 78.7501 58.9089C78.6975 58.7717 78.6116 58.6496 78.5001 58.5537L77.902 58.043C77.902 58.3035 77.6055 58.3035 77.6055 58.5537V59.0643H77.3089C77.3089 58.8039 77.0073 58.5537 77.0073 58.2779C76.9853 58.1354 76.9128 58.0055 76.8031 57.9118C76.6933 57.8181 76.5535 57.7668 76.4092 57.7673C75.811 57.7673 75.5145 58.0277 75.5145 58.2779C75.5145 58.5281 75.811 58.5383 75.811 58.7886C75.9224 58.8834 76.0084 59.0045 76.0611 59.141C76.1137 59.2774 76.1314 59.4248 76.1126 59.5698C75.811 59.5698 75.811 59.3094 75.5145 59.3094C75.218 59.3094 75.2129 59.3094 74.9164 59.049C75.811 60.6166 74.9164 61.9238 75.2129 63.231H74.9164C74.3182 62.2098 74.0166 61.403 73.4185 60.3562H73.081C73.3776 61.6634 73.6792 62.7102 73.9757 63.757C73.3776 62.7357 73.081 61.403 71.8848 61.1425C71.9602 62.4468 72.1501 63.742 72.4522 65.0131C72.2279 64.3425 72.0384 63.6608 71.8848 62.9706C71.2866 61.403 71.2866 59.8302 70.985 58.0022C70.985 57.7418 70.985 57.7418 70.6885 57.4916C69.7938 57.2311 68.894 57.4916 68.5975 58.0022C67.9994 58.7886 67.9994 59.3094 67.6978 60.0958V62.9706C67.9879 65.3057 68.595 67.5905 69.5024 69.762V70.2726H69.2059C68.0096 69.2513 67.4115 67.6582 66.5117 66.351H66.2152C66.1794 66.7168 66.2856 67.0823 66.5117 67.3722C67.4115 68.9398 68.0096 70.5126 68.9043 72.0802C70.1005 74.6946 71.895 77.3141 73.3878 79.9286V80.4392C73.0913 80.1788 73.0913 80.1788 72.7896 80.1788C72.488 80.1788 72.1915 79.9184 71.895 79.9184C71.8577 79.9141 71.82 79.9176 71.7842 79.9286C71.7484 79.9397 71.7153 79.958 71.687 79.9825C71.6586 80.007 71.6357 80.037 71.6196 80.0708C71.6035 80.1046 71.5945 80.1414 71.5934 80.1788C72.2564 80.7229 72.8581 81.3376 73.3878 82.0119L73.0913 82.2723C72.1915 81.7617 71.5934 81.486 70.6987 80.9651L70.4022 81.2256L70.9952 82.0119C70.6987 82.0119 70.6987 82.0119 70.4022 82.7932C68.9043 82.2826 67.708 81.7719 66.2152 81.2256C66.2152 80.9651 65.617 81.2256 65.3154 81.2256C65.1564 81.2073 64.9954 81.2209 64.8418 81.2656C64.6881 81.3103 64.545 81.3852 64.4208 81.486V82.2723C64.423 82.5543 64.5093 82.8293 64.6687 83.0621C64.828 83.2949 65.0532 83.4751 65.3154 83.5795C68.7437 85.5629 72.3478 87.2261 76.082 88.548C78.4569 89.5613 80.9815 90.1805 83.5562 90.3811L89.8341 91.1675C90.217 91.154 90.5987 91.2161 90.9575 91.3502C91.3163 91.4842 91.6451 91.6877 91.9251 91.9488C92.2216 92.2092 92.2216 92.2092 92.2216 92.4594H91.3269L90.7288 92.7198C90.7288 92.7198 91.0253 92.7198 91.0253 92.9802C91.0253 93.2406 91.3269 93.4908 91.3269 93.7666C91.3269 94.2772 90.7288 94.8134 91.3269 95.5946C90.7288 95.5946 90.4323 95.3342 90.1306 95.3342C89.5325 95.0738 89.5325 95.3342 89.236 95.3342C89.236 95.5946 89.236 95.8448 89.5325 95.8448L90.4323 96.3555L92.2216 97.9231C92.5232 98.1886 92.5232 98.1886 92.5232 98.4337C92.2216 98.1733 92.2216 98.1733 91.9251 98.1733C90.7769 97.6227 89.5786 97.1833 88.3465 96.861H87.4518V97.1265C88.6481 97.3869 89.5427 98.1733 90.4425 98.6942C90.4425 98.9546 90.4425 98.9546 90.1409 98.9546L89.8444 99.2201C90.1409 99.2201 90.1409 99.4805 90.4425 99.4805C93.1316 99.9911 95.2225 101.574 97.017 103.402C98.4293 104.876 99.3538 106.748 99.6652 108.764C100.263 110.331 100.263 111.899 100.263 113.732C99.9667 115.375 99.9667 117.058 100.263 118.701C100.263 120.273 100.565 121.841 100.565 123.409C100.565 124.195 100.263 124.981 100.263 125.763V126.273H100.565C102.405 120.237 103.509 114.002 103.852 107.702C104.747 108.483 104.747 109.53 104.747 110.576C104.796 112.238 104.697 113.901 104.45 115.545C103.816 118.041 103.324 120.571 102.978 123.123Z" fill="white"/>
<path d="M548.669 84.808C552.173 86.056 556.349 86.68 561.197 86.68C566.477 86.68 570.725 85.96 573.941 84.52C577.205 83.08 579.581 81.208 581.069 78.904C582.557 76.552 583.301 74.056 583.301 71.416C583.301 69.304 582.845 67.312 581.933 65.44C581.021 63.52 579.485 61.888 577.325 60.544C575.165 59.152 572.189 58.192 568.397 57.664L554.141 55.432C553.037 55.24 552.149 55.024 551.477 54.784C550.805 54.496 550.301 54.112 549.965 53.632C549.677 53.152 549.533 52.552 549.533 51.832C549.533 50.968 549.797 50.272 550.325 49.744C550.901 49.168 551.861 48.736 553.205 48.448C554.549 48.16 556.445 48.016 558.893 48.016C561.965 48.016 564.317 48.208 565.949 48.592C567.581 48.976 568.685 49.576 569.261 50.392C569.837 51.208 570.125 52.288 570.125 53.632V54.712H582.293V54.28C582.293 50.776 581.477 47.728 579.845 45.136C578.261 42.544 575.837 40.552 572.573 39.16C569.309 37.72 565.157 37 560.117 37C555.893 37 552.341 37.456 549.461 38.368C546.581 39.232 544.253 40.408 542.477 41.896C540.701 43.336 539.405 44.968 538.589 46.792C537.773 48.616 537.365 50.464 537.365 52.336C537.365 54.928 537.893 57.184 538.949 59.104C540.005 60.976 541.541 62.488 543.557 63.64C545.621 64.792 548.093 65.584 550.973 66.016L565.301 68.032C567.557 68.32 569.093 68.752 569.909 69.328C570.725 69.904 571.133 70.768 571.133 71.92C571.133 72.832 570.893 73.552 570.413 74.08C569.933 74.608 568.973 74.992 567.533 75.232C566.141 75.472 564.029 75.592 561.197 75.592C558.077 75.592 555.725 75.424 554.141 75.088C552.557 74.752 551.477 74.2 550.901 73.432C550.373 72.664 550.109 71.656 550.109 70.408V68.968H537.941V69.4C537.941 73.336 538.853 76.576 540.677 79.12C542.549 81.664 545.213 83.56 548.669 84.808Z" fill="white"/>
<path d="M623.234 85.96H635.402V37.72H623.234V56.224H599.402V37.72H587.234V85.96H599.402V67.168H623.234V85.96Z" fill="white"/>
<path d="M533.33 85.96H521.162V37.72H533.33V85.96Z" fill="white"/>
<path d="M474.907 85.96H487.075V68.608H515.803V57.664H487.075V48.664H516.883V37.72H474.907V85.96Z" fill="white"/>
<path d="M428.512 85.96V37.72H470.344V48.664H440.68V56.224H469.264V67.168H440.68V75.016H470.344V85.96H428.512Z" fill="white"/>
<path d="M383.875 85.96H424.339V75.016H396.043V37.72H383.875V85.96Z" fill="white"/>
<path fill-rule="evenodd" clip-rule="evenodd" d="M364.226 85.96H332.978V37.72H362.786C366.194 37.72 369.026 38.176 371.282 39.088C373.538 39.952 375.242 41.272 376.394 43.048C377.594 44.776 378.194 46.912 378.194 49.456C378.194 52.48 377.306 55 375.53 57.016C373.754 58.984 370.754 60.088 366.53 60.328V61.048C371.186 61.288 374.642 62.44 376.898 64.504C379.154 66.568 380.282 69.256 380.282 72.568C380.282 75.256 379.706 77.608 378.554 79.624C377.45 81.64 375.722 83.2 373.37 84.304C371.018 85.408 367.97 85.96 364.226 85.96ZM345.074 66.448V75.016H362.714C364.634 75.016 365.978 74.704 366.746 74.08C367.562 73.456 367.97 72.328 367.97 70.696C367.97 69.064 367.586 67.96 366.818 67.384C366.05 66.76 364.682 66.448 362.714 66.448H345.074ZM345.074 48.664V56.44H361.418C363.098 56.44 364.274 56.152 364.946 55.576C365.666 54.952 366.026 53.968 366.026 52.624C366.026 51.232 365.642 50.224 364.874 49.6C364.106 48.976 362.882 48.664 361.202 48.664H345.074Z" fill="white"/>
<path d="M265.068 85.96H277.237V63.712L276.805 55.936H277.596L280.405 63.712L289.044 83.08H303.805L312.444 63.712L315.253 55.936H316.116L315.612 63.712V85.96H327.78V37.72H311.293L301.645 59.608L297.108 71.488H296.316L291.637 59.608L281.556 37.72H265.068V85.96Z" fill="white"/>
<path d="M235.966 86.68C230.542 86.68 226.054 85.84 222.502 84.16C218.95 82.48 216.286 80.08 214.51 76.96C212.734 73.792 211.846 70.072 211.846 65.8V37.72H224.014V64.864C224.014 67.36 224.35 69.352 225.022 70.84C225.694 72.28 226.894 73.312 228.622 73.936C230.398 74.56 232.846 74.872 235.966 74.872C239.134 74.872 241.582 74.56 243.31 73.936C245.038 73.312 246.238 72.28 246.91 70.84C247.63 69.352 247.99 67.36 247.99 64.864V37.72H260.158V65.8C260.158 70.072 259.27 73.792 257.494 76.96C255.718 80.08 253.03 82.48 249.43 84.16C245.878 85.84 241.39 86.68 235.966 86.68Z" fill="white"/>
<path fill-rule="evenodd" clip-rule="evenodd" d="M161.52 85.96H173.688V69.04H180.024C181.848 69.04 183.288 69.184 184.344 69.472C185.4 69.76 186.264 70.264 186.936 70.984C187.656 71.656 188.304 72.592 188.88 73.792L195.144 85.96H209.184L202.704 73.432C201.792 71.656 200.808 70.192 199.752 69.04C198.696 67.84 196.992 66.952 194.64 66.376V65.656C197.712 65.32 200.232 64.6 202.2 63.496C204.168 62.392 205.608 60.904 206.52 59.032C207.48 57.16 207.96 54.928 207.96 52.336C207.96 49.216 207.216 46.576 205.728 44.416C204.288 42.256 202.152 40.6 199.32 39.448C196.536 38.296 193.08 37.72 188.952 37.72H161.52V85.96ZM173.688 59.896V48.664H188.808C191.064 48.664 192.696 49.072 193.704 49.888C194.712 50.656 195.216 52.12 195.216 54.28C195.216 56.536 194.712 58.048 193.704 58.816C192.696 59.536 191.064 59.896 188.808 59.896H173.688Z" fill="white"/>
<path d="M166.62 116.16C165.3 116.16 164.187 115.973 163.28 115.6C162.387 115.227 161.713 114.7 161.26 114.02C160.807 113.327 160.58 112.513 160.58 111.58V111.46H162.74V111.78C162.74 112.313 162.86 112.76 163.1 113.12C163.34 113.467 163.74 113.733 164.3 113.92C164.86 114.093 165.633 114.18 166.62 114.18C167.473 114.18 168.153 114.12 168.66 114C169.167 113.867 169.527 113.667 169.74 113.4C169.967 113.12 170.08 112.773 170.08 112.36C170.08 111.773 169.893 111.347 169.52 111.08C169.147 110.813 168.54 110.6 167.7 110.44L164.42 109.9C163.673 109.753 163.007 109.54 162.42 109.26C161.833 108.967 161.373 108.58 161.04 108.1C160.72 107.607 160.56 106.993 160.56 106.26C160.56 105.78 160.667 105.307 160.88 104.84C161.093 104.373 161.427 103.953 161.88 103.58C162.333 103.207 162.92 102.913 163.64 102.7C164.373 102.473 165.267 102.36 166.32 102.36C167.627 102.36 168.7 102.56 169.54 102.96C170.38 103.36 171 103.907 171.4 104.6C171.813 105.28 172.02 106.06 172.02 106.94V107.06H169.88V106.8C169.88 106.253 169.76 105.8 169.52 105.44C169.28 105.067 168.887 104.793 168.34 104.62C167.793 104.433 167.053 104.34 166.12 104.34C165.307 104.34 164.647 104.407 164.14 104.54C163.647 104.673 163.287 104.873 163.06 105.14C162.833 105.393 162.72 105.727 162.72 106.14C162.72 106.513 162.8 106.82 162.96 107.06C163.12 107.3 163.367 107.493 163.7 107.64C164.033 107.773 164.46 107.9 164.98 108.02L168.24 108.58C169.133 108.74 169.873 108.98 170.46 109.3C171.06 109.62 171.507 110.027 171.8 110.52C172.093 111.013 172.24 111.587 172.24 112.24C172.24 112.92 172.047 113.56 171.66 114.16C171.273 114.76 170.667 115.247 169.84 115.62C169.013 115.98 167.94 116.16 166.62 116.16Z" fill="white"/>
<path d="M191.153 116.16C189.753 116.16 188.527 115.88 187.473 115.32C186.433 114.747 185.62 113.947 185.033 112.92C184.46 111.88 184.173 110.66 184.173 109.26C184.173 107.86 184.46 106.647 185.033 105.62C185.62 104.58 186.433 103.78 187.473 103.22C188.527 102.647 189.753 102.36 191.153 102.36C192.58 102.36 193.813 102.647 194.853 103.22C195.893 103.78 196.7 104.58 197.273 105.62C197.86 106.647 198.153 107.86 198.153 109.26C198.153 110.66 197.86 111.88 197.273 112.92C196.7 113.947 195.893 114.747 194.853 115.32C193.813 115.88 192.58 116.16 191.153 116.16ZM191.153 114.08C192.207 114.08 193.08 113.913 193.773 113.58C194.48 113.233 195.007 112.707 195.353 112C195.7 111.28 195.873 110.367 195.873 109.26C195.873 108.14 195.7 107.227 195.353 106.52C195.007 105.813 194.48 105.293 193.773 104.96C193.08 104.613 192.207 104.44 191.153 104.44C190.1 104.44 189.22 104.613 188.513 104.96C187.82 105.293 187.3 105.813 186.953 106.52C186.62 107.227 186.453 108.14 186.453 109.26C186.453 110.367 186.62 111.28 186.953 112C187.3 112.707 187.82 113.233 188.513 113.58C189.22 113.913 190.1 114.08 191.153 114.08Z" fill="white"/>
<path d="M212.709 115.96H210.549V102.56H212.709V115.96ZM220.909 110.58H211.209V108.66H220.909V110.58ZM221.209 104.5H211.209V102.56H221.209V104.5Z" fill="white"/>
<path d="M240.275 115.96H238.135V102.56H240.275V115.96ZM245.535 104.5H232.855V102.56H245.535V104.5Z" fill="white"/>
<path d="M263.598 115.96H260.418L256.878 102.56H259.278L261.458 111.04L262.058 113.88H262.218L262.938 111.04L265.638 102.56H268.778L271.658 111.04L272.418 113.88H272.578L273.138 111.04L275.138 102.56H277.498L274.138 115.96H270.958L268.258 108.16L267.278 104.72H267.098L266.138 108.16L263.598 115.96Z" fill="white"/>
<path d="M290.97 115.96H288.57L294.55 102.56H297.59L303.57 115.96H301.13L296.91 106.46L296.13 104.56H295.97L295.19 106.46L290.97 115.96ZM300.47 112.48H291.53V110.54H300.47V112.48Z" fill="white"/>
<path d="M317.53 115.96H315.37V102.56H322.33C323.344 102.56 324.217 102.713 324.95 103.02C325.697 103.327 326.264 103.773 326.65 104.36C327.05 104.947 327.25 105.66 327.25 106.5C327.25 107.247 327.09 107.887 326.77 108.42C326.464 108.953 326.01 109.373 325.41 109.68C324.824 109.987 324.11 110.167 323.27 110.22V110.36C323.79 110.493 324.19 110.713 324.47 111.02C324.764 111.313 325.03 111.673 325.27 112.1L327.51 115.96H325.03L322.89 112.26C322.69 111.9 322.47 111.613 322.23 111.4C322.004 111.173 321.717 111.013 321.37 110.92C321.024 110.813 320.564 110.76 319.99 110.76H317.53V115.96ZM317.53 104.5V109.1H322.31C323.204 109.1 323.877 108.927 324.33 108.58C324.784 108.233 325.01 107.64 325.01 106.8C325.01 105.987 324.784 105.4 324.33 105.04C323.877 104.68 323.204 104.5 322.31 104.5H317.53Z" fill="white"/>
<path d="M341.768 115.96H339.608V102.56H341.768V115.96ZM350.328 115.96H340.268V114.02H350.328V115.96ZM350.028 110.18H340.268V108.26H350.028V110.18ZM350.328 104.5H340.268V102.56H350.328V104.5Z" fill="white"/>
<path d="M383.248 115.96H377.848V114.02H383.248C384.288 114.02 385.135 113.867 385.788 113.56C386.455 113.24 386.948 112.733 387.268 112.04C387.588 111.333 387.748 110.407 387.748 109.26C387.748 108.1 387.588 107.173 387.268 106.48C386.948 105.787 386.455 105.287 385.788 104.98C385.135 104.66 384.288 104.5 383.248 104.5H377.848V102.56H383.248C384.648 102.56 385.848 102.833 386.848 103.38C387.861 103.913 388.641 104.68 389.188 105.68C389.748 106.68 390.028 107.873 390.028 109.26C390.028 110.647 389.748 111.84 389.188 112.84C388.641 113.84 387.861 114.613 386.848 115.16C385.848 115.693 384.648 115.96 383.248 115.96ZM379.288 115.96H377.148V102.56H379.288V115.96Z" fill="white"/>
<path d="M404.597 115.96H402.437V102.56H404.597V115.96ZM413.157 115.96H403.097V114.02H413.157V115.96ZM412.857 110.18H403.097V108.26H412.857V110.18ZM413.157 104.5H403.097V102.56H413.157V104.5Z" fill="white"/>
<path d="M433.32 115.96H430.26L424.54 102.56H427.1L431.74 113.78H431.9L436.5 102.56H439.04L433.32 115.96Z" fill="white"/>
<path d="M452.916 115.96H450.756V102.56H452.916V115.96ZM461.476 115.96H451.416V114.02H461.476V115.96ZM461.176 110.18H451.416V108.26H461.176V110.18ZM461.476 104.5H451.416V102.56H461.476V104.5Z" fill="white"/>
<path d="M476.119 115.96H473.959V102.56H476.119V115.96ZM484.379 115.96H474.599V114.02H484.379V115.96Z" fill="white"/>
<path d="M503.155 116.16C501.755 116.16 500.528 115.88 499.475 115.32C498.435 114.747 497.622 113.947 497.035 112.92C496.462 111.88 496.175 110.66 496.175 109.26C496.175 107.86 496.462 106.647 497.035 105.62C497.622 104.58 498.435 103.78 499.475 103.22C500.528 102.647 501.755 102.36 503.155 102.36C504.582 102.36 505.815 102.647 506.855 103.22C507.895 103.78 508.702 104.58 509.275 105.62C509.862 106.647 510.155 107.86 510.155 109.26C510.155 110.66 509.862 111.88 509.275 112.92C508.702 113.947 507.895 114.747 506.855 115.32C505.815 115.88 504.582 116.16 503.155 116.16ZM503.155 114.08C504.208 114.08 505.082 113.913 505.775 113.58C506.482 113.233 507.008 112.707 507.355 112C507.702 111.28 507.875 110.367 507.875 109.26C507.875 108.14 507.702 107.227 507.355 106.52C507.008 105.813 506.482 105.293 505.775 104.96C505.082 104.613 504.208 104.44 503.155 104.44C502.102 104.44 501.222 104.613 500.515 104.96C499.822 105.293 499.302 105.813 498.955 106.52C498.622 107.227 498.455 108.14 498.455 109.26C498.455 110.367 498.622 111.28 498.955 112C499.302 112.707 499.822 113.233 500.515 113.58C501.222 113.913 502.102 114.08 503.155 114.08Z" fill="white"/>
<path d="M529.111 111.92H523.371V109.98H528.911C529.924 109.98 530.684 109.773 531.191 109.36C531.711 108.947 531.971 108.24 531.971 107.24C531.971 106.253 531.711 105.553 531.191 105.14C530.684 104.713 529.924 104.5 528.911 104.5H523.371V102.56H529.111C530.111 102.56 530.984 102.747 531.731 103.12C532.491 103.48 533.077 104.007 533.491 104.7C533.917 105.393 534.131 106.24 534.131 107.24C534.131 108.227 533.917 109.067 533.491 109.76C533.077 110.453 532.491 110.987 531.731 111.36C530.984 111.733 530.111 111.92 529.111 111.92ZM524.711 115.96H522.551V102.56H524.711V115.96Z" fill="white"/>
<path d="M548.382 115.96H546.222V102.56H549.162L553.022 110.32L554.242 113.1H554.402L555.582 110.32L559.402 102.56H562.342V115.96H560.182V107.74L560.262 105.8H560.102L559.282 107.74L555.582 115.16H552.982L549.282 107.74L548.462 105.8H548.302L548.382 107.74V115.96Z" fill="white"/>
<path d="M577.307 115.96H575.147V102.56H577.307V115.96ZM585.867 115.96H575.807V114.02H585.867V115.96ZM585.567 110.18H575.807V108.26H585.567V110.18ZM585.867 104.5H575.807V102.56H585.867V104.5Z" fill="white"/>
<path d="M600.509 115.96H598.349V102.56H600.669L606.669 110.4L608.409 112.9H608.569L608.469 110.48V102.56H610.629V115.96H608.309L602.269 108.14L600.589 105.78H600.429L600.509 108.1V115.96Z" fill="white"/>
<path d="M630.087 115.96H627.947V102.56H630.087V115.96ZM635.346 104.5H622.667V102.56H635.346V104.5Z" fill="white"/>
</svg>
